<?xml version="1.0" encoding="utf-8"?>
<!-- Generator: Adobe Illustrator 23.0.1, SVG Export Plug-In . SVG Version: 6.00 Build 0)  -->
<svg version="1.1" id="Layer_1" xmlns="http://www.w3.org/2000/svg" xmlns:xlink="http://www.w3.org/1999/xlink" x="0px" y="0px"
	 viewBox="0 0 512 512" style="enable-background:new 0 0 512 512;" xml:space="preserve">
<style type="text/css">
	.st0{fill:#FFFFFF;}
</style>
<path class="st0" d="M432,0H80C35.8,0,0,35.8,0,80v352c0,44.2,35.8,80,80,80h352c44.2,0,80-35.8,80-80V80C512,35.8,476.2,0,432,0z
	 M303.6,402.1c-7.6,1.5-10.3-3.2-10.3-7.2c0-4.9,0.2-21,0.2-41.1c0-14-4.8-23.2-10.2-27.8c33.4-3.7,68.5-16.4,68.5-74
	c0-16.3-5.8-29.7-15.4-40.2c1.5-3.8,6.7-19.1-1.5-39.7c0,0-12.6-4-41.2,15.4c-12-3.4-24.9-5-37.6-5.1c-12.8,0.1-25.6,1.8-37.6,5.1
	c-28.7-19.4-41.3-15.4-41.3-15.4c-8.2,20.7-3,35.9-1.5,39.7c-9.6,10.4-15.4,23.8-15.4,40.2c0,57.4,35,70.3,68.3,74.1
	c-4.3,3.8-8.1,10.4-9.5,20.1c-8.6,3.8-30.3,10.4-43.7-12.5c0,0-7.9-14.4-23-15.5c0,0-14.6-0.2-1,9.1c0,0,9.9,4.6,16.7,21.9
	c0,0,8.8,29.2,50.5,20.1c0.1,12.5,0.2,21.9,0.2,25.5c0,3.9-2.7,8.6-10.2,7.2C149,382.2,106,326,106,259.7c0-82.8,67.2-150,150-150
	s150,67.2,150,150C406,326,363.1,382.1,303.6,402.1z"/>
</svg>
