<?xml version="1.0" encoding="utf-8"?>
<!-- Generator: Adobe Illustrator 22.1.0, SVG Export Plug-In . SVG Version: 6.00 Build 0)  -->
<svg version="1.1" id="Layer_1" xmlns="http://www.w3.org/2000/svg" xmlns:xlink="http://www.w3.org/1999/xlink" x="0px" y="0px"
	 viewBox="0 0 360 360" style="enable-background:new 0 0 360 360;" xml:space="preserve">
<style type="text/css">
	.st0{fill:none;stroke:#000000;stroke-width:4;stroke-linecap:round;stroke-linejoin:round;stroke-miterlimit:10;}
	.st1{fill:none;stroke:#F15A29;stroke-width:4;stroke-linecap:round;stroke-linejoin:round;stroke-miterlimit:10;}
	.st2{fill:#F15A29;}
</style>
<path class="st0" d="M63.7,116c-2.5-0.2-3.9-0.4-4.8-0.7c-13.7-3.9-23.7-16.5-23.7-31.4c0-12.8,7.4-23.9,18.1-29.2"/>
<line class="st1" x1="75.1" y1="53.1" x2="62.5" y2="49.7"/>
<path class="st1" d="M74.7,53.1c14.1,3.4,24.7,16.1,24.7,31.3c0,14.5-9.6,26.8-22.9,30.8c-0.6,0.2-3.6,0.8-4.4,0.8"/>
<path class="st1" d="M63.5,49.9c-4-0.8-7.4-3.3-9.4-6.8c-1.2-2.1-1.9-4.5-1.9-7c0-7.8,7.2-14.1,14.9-14.1"/>
<g>
	<path d="M135,110.4c0,2.1-1.4,2.8-3.4,2.8c-2.1,0-3.4-0.7-3.4-2.8v-4.8c0-2.1,1.4-2.7,3.4-2.7c2.1,0,3.4,0.7,3.4,2.7V110.4z
		 M134.3,105.7c0-1.9-1.3-2.2-2.7-2.2c-1.5,0-2.7,0.3-2.7,2.2v4.7c0,1.9,1.3,2.1,2.7,2.1c1.5,0,2.7-0.3,2.7-2.1V105.7z"/>
	<path d="M137.5,105.6c0-2.1,1.3-2.7,3.5-2.7c0.9,0,1.8,0,2.6,0.2c0.1,0.2,0.1,0.4,0,0.6c-0.9-0.1-1.6-0.2-2.6-0.2
		c-1.5,0-2.8,0.3-2.8,2.2v4.7c0,1.9,1.3,2.1,2.8,2.1c1.2,0,1.8-0.2,2.6-0.4c0.1,0.1,0.1,0.4,0.1,0.6c-0.9,0.3-1.9,0.5-2.8,0.5
		c-2.1,0-3.5-0.7-3.5-2.7L137.5,105.6L137.5,105.6z"/>
	<path d="M145.8,105.6c0-2.1,1.3-2.7,3.5-2.7c0.9,0,1.8,0,2.6,0.2c0.1,0.2,0.1,0.4,0,0.6c-0.9-0.1-1.6-0.2-2.6-0.2
		c-1.5,0-2.8,0.3-2.8,2.2v4.7c0,1.9,1.3,2.1,2.8,2.1c1.2,0,1.8-0.2,2.6-0.4c0.1,0.1,0.1,0.4,0.1,0.6c-0.9,0.3-1.9,0.5-2.8,0.5
		c-2.1,0-3.5-0.7-3.5-2.7L145.8,105.6L145.8,105.6z"/>
	<path d="M154.5,103.1c0.2-0.1,0.5-0.1,0.7,0v9.9c-0.2,0.1-0.5,0.1-0.7,0V103.1z"/>
	<path d="M158.3,113v-9.9h3c2.2,0,3.6,0.7,3.6,2.7v4.4c0,2-1.4,2.7-3.6,2.7h-3V113z M164.2,105.9c0-1.9-1.3-2.2-2.9-2.2h-2.4v8.6
		h2.4c1.6,0,2.9-0.3,2.9-2.1V105.9z"/>
	<path d="M167.7,113v-9.9h5.2c0.1,0.2,0.1,0.5,0,0.6h-4.5v3.9h4.3c0.1,0.2,0.1,0.5,0,0.6h-4.3v4.1h4.5c0.1,0.2,0.1,0.5,0,0.6h-5.2
		V113z"/>
	<path d="M176,104.1v8.9c-0.2,0.1-0.5,0.1-0.7,0v-9.9c0.2-0.1,0.6-0.1,0.8,0l5.4,9v-9c0.2-0.1,0.5-0.1,0.7,0v9.9
		c-0.2,0.1-0.7,0.1-0.9,0L176,104.1z"/>
	<path d="M187.1,103.7H184c-0.1-0.2-0.1-0.5,0-0.6h6.8c0.1,0.2,0.1,0.5,0,0.6h-3v9.3c-0.2,0.1-0.5,0.1-0.7,0V103.7z"/>
	<path d="M196.5,109.7h-4.1l-1.2,3.3c-0.2,0.1-0.5,0.1-0.7,0l3.5-9.9c0.2-0.1,0.5-0.1,0.7,0l3.5,9.9c-0.2,0.1-0.5,0.1-0.7,0
		L196.5,109.7z M194.4,103.9l-1.8,5.2h3.7L194.4,103.9z"/>
	<path d="M200.5,113v-9.9c0.2-0.1,0.5-0.1,0.7,0v9.3h4.4c0.1,0.2,0.1,0.5,0,0.6H200.5z"/>
	<path d="M210.6,105.6c0-2.1,1.3-2.7,3.5-2.7c0.9,0,1.8,0,2.6,0.2c0.1,0.2,0.1,0.4,0,0.6c-0.9-0.1-1.6-0.2-2.6-0.2
		c-1.5,0-2.8,0.3-2.8,2.2v4.7c0,1.9,1.3,2.1,2.8,2.1c1.2,0,1.8-0.2,2.6-0.4c0.1,0.1,0.1,0.4,0.1,0.6c-0.9,0.3-1.9,0.5-2.8,0.5
		c-2.1,0-3.5-0.7-3.5-2.7L210.6,105.6L210.6,105.6z"/>
	<path d="M225.8,110.4c0,2.1-1.4,2.8-3.4,2.8c-2.1,0-3.4-0.7-3.4-2.8v-4.8c0-2.1,1.4-2.7,3.4-2.7c2.1,0,3.4,0.7,3.4,2.7V110.4z
		 M225.2,105.7c0-1.9-1.3-2.2-2.7-2.2c-1.5,0-2.7,0.3-2.7,2.2v4.7c0,1.9,1.3,2.1,2.7,2.1c1.5,0,2.7-0.3,2.7-2.1V105.7z"/>
	<path d="M228.6,113v-9.9c0.2-0.1,0.5-0.1,0.7,0v9.3h4.4c0.1,0.2,0.1,0.5,0,0.6H228.6z"/>
	<path d="M235.6,113v-9.9c0.2-0.1,0.5-0.1,0.7,0v9.3h4.4c0.1,0.2,0.1,0.5,0,0.6H235.6z"/>
	<path d="M242.6,113v-9.9h5.2c0.1,0.2,0.1,0.5,0,0.6h-4.5v3.9h4.3c0.1,0.2,0.1,0.5,0,0.6h-4.3v4.1h4.5c0.1,0.2,0.1,0.5,0,0.6h-5.2
		V113z"/>
	<path d="M255.7,108.7h-2.5c-0.1-0.2-0.1-0.4,0-0.6h3.1v4.6c-0.9,0.3-1.9,0.5-2.9,0.5c-2.2,0-3.6-0.7-3.6-2.7v-4.8
		c0-2.1,1.4-2.7,3.6-2.7c0.9,0,1.8,0,2.7,0.2c0.1,0.2,0.1,0.4,0,0.6c-0.9-0.1-1.6-0.2-2.7-0.2c-1.6,0-2.9,0.3-2.9,2.2v4.7
		c0,1.9,1.3,2.1,2.9,2.1c0.9,0,1.6-0.1,2.2-0.3L255.7,108.7L255.7,108.7z"/>
	<path d="M259.1,113v-9.9h5.2c0.1,0.2,0.1,0.5,0,0.6h-4.5v3.9h4.3c0.1,0.2,0.1,0.5,0,0.6h-4.3v4.1h4.5c0.1,0.2,0.1,0.5,0,0.6h-5.2
		V113z"/>
</g>
<g>
	<path d="M52.2,317.7c0,2.1-1.4,2.8-3.4,2.8c-2.1,0-3.4-0.7-3.4-2.8v-4.8c0-2.1,1.4-2.7,3.4-2.7c2.1,0,3.4,0.7,3.4,2.7V317.7z
		 M51.6,312.9c0-1.9-1.3-2.2-2.7-2.2c-1.5,0-2.7,0.3-2.7,2.2v4.7c0,1.9,1.3,2.1,2.7,2.1c1.5,0,2.7-0.3,2.7-2.1V312.9z"/>
	<path d="M54.7,312.8c0-2.1,1.3-2.7,3.5-2.7c0.9,0,1.8,0,2.6,0.2c0.1,0.2,0.1,0.4,0,0.6c-0.9-0.1-1.6-0.2-2.6-0.2
		c-1.5,0-2.8,0.3-2.8,2.2v4.7c0,1.9,1.3,2.1,2.8,2.1c1.2,0,1.8-0.2,2.6-0.4c0.1,0.1,0.1,0.4,0.1,0.6c-0.9,0.3-1.9,0.5-2.8,0.5
		c-2.1,0-3.5-0.7-3.5-2.7v-4.9H54.7z"/>
	<path d="M63,312.8c0-2.1,1.3-2.7,3.5-2.7c0.9,0,1.8,0,2.6,0.2c0.1,0.2,0.1,0.4,0,0.6c-0.9-0.1-1.6-0.2-2.6-0.2
		c-1.5,0-2.8,0.3-2.8,2.2v4.7c0,1.9,1.3,2.1,2.8,2.1c1.2,0,1.8-0.2,2.6-0.4c0.1,0.1,0.1,0.4,0.1,0.6c-0.9,0.3-1.9,0.5-2.8,0.5
		c-2.1,0-3.5-0.7-3.5-2.7v-4.9H63z"/>
	<path d="M71.7,310.3c0.2-0.1,0.5-0.1,0.7,0v9.9c-0.2,0.1-0.5,0.1-0.7,0V310.3z"/>
	<path d="M75.5,320.2v-9.9h3c2.2,0,3.6,0.7,3.6,2.7v4.4c0,2-1.4,2.7-3.6,2.7L75.5,320.2L75.5,320.2z M81.4,313.1
		c0-1.9-1.3-2.2-2.9-2.2h-2.4v8.6h2.4c1.6,0,2.9-0.3,2.9-2.1V313.1z"/>
	<path d="M84.9,320.2v-9.9h5.2c0.1,0.2,0.1,0.5,0,0.6h-4.5v3.9h4.3c0.1,0.2,0.1,0.5,0,0.6h-4.3v4.1h4.5c0.1,0.2,0.1,0.5,0,0.6
		L84.9,320.2L84.9,320.2z"/>
	<path d="M93.2,311.3v8.9c-0.2,0.1-0.5,0.1-0.7,0v-9.9c0.2-0.1,0.6-0.1,0.8,0l5.4,9v-9c0.2-0.1,0.5-0.1,0.7,0v9.9
		c-0.2,0.1-0.7,0.1-0.9,0L93.2,311.3z"/>
	<path d="M104.3,310.9h-3.1c-0.1-0.2-0.1-0.5,0-0.6h6.8c0.1,0.2,0.1,0.5,0,0.6h-3v9.3c-0.2,0.1-0.5,0.1-0.7,0
		C104.3,320.2,104.3,310.9,104.3,310.9z"/>
	<path d="M113.7,316.9h-4.1l-1.2,3.3c-0.2,0.1-0.5,0.1-0.7,0l3.5-9.9c0.2-0.1,0.5-0.1,0.7,0l3.5,9.9c-0.2,0.1-0.5,0.1-0.7,0
		L113.7,316.9z M111.7,311.2l-1.8,5.2h3.7L111.7,311.2z"/>
	<path d="M117.8,320.2v-9.9c0.2-0.1,0.5-0.1,0.7,0v9.3h4.4c0.1,0.2,0.1,0.5,0,0.6H117.8z"/>
	<path d="M127.9,312.8c0-2.1,1.3-2.7,3.5-2.7c0.9,0,1.8,0,2.6,0.2c0.1,0.2,0.1,0.4,0,0.6c-0.9-0.1-1.6-0.2-2.6-0.2
		c-1.5,0-2.8,0.3-2.8,2.2v4.7c0,1.9,1.3,2.1,2.8,2.1c1.2,0,1.8-0.2,2.6-0.4c0.1,0.1,0.1,0.4,0.1,0.6c-0.9,0.3-1.9,0.5-2.8,0.5
		c-2.1,0-3.5-0.7-3.5-2.7L127.9,312.8L127.9,312.8z"/>
	<path d="M143.1,317.7c0,2.1-1.4,2.8-3.4,2.8c-2.1,0-3.4-0.7-3.4-2.8v-4.8c0-2.1,1.4-2.7,3.4-2.7c2.1,0,3.4,0.7,3.4,2.7V317.7z
		 M142.4,312.9c0-1.9-1.3-2.2-2.7-2.2c-1.5,0-2.7,0.3-2.7,2.2v4.7c0,1.9,1.3,2.1,2.7,2.1c1.5,0,2.7-0.3,2.7-2.1V312.9z"/>
	<path d="M145.9,320.2v-9.9c0.2-0.1,0.5-0.1,0.7,0v9.3h4.4c0.1,0.2,0.1,0.5,0,0.6H145.9z"/>
	<path d="M152.9,320.2v-9.9c0.2-0.1,0.5-0.1,0.7,0v9.3h4.4c0.1,0.2,0.1,0.5,0,0.6H152.9z"/>
	<path d="M159.9,320.2v-9.9h5.2c0.1,0.2,0.1,0.5,0,0.6h-4.5v3.9h4.3c0.1,0.2,0.1,0.5,0,0.6h-4.3v4.1h4.5c0.1,0.2,0.1,0.5,0,0.6
		L159.9,320.2L159.9,320.2z"/>
	<path d="M172.9,315.9h-2.5c-0.1-0.2-0.1-0.4,0-0.6h3.1v4.6c-0.9,0.3-1.9,0.5-2.9,0.5c-2.2,0-3.6-0.7-3.6-2.7v-4.8
		c0-2.1,1.4-2.7,3.6-2.7c0.9,0,1.8,0,2.7,0.2c0.1,0.2,0.1,0.4,0,0.6c-0.9-0.1-1.6-0.2-2.7-0.2c-1.6,0-2.9,0.3-2.9,2.2v4.7
		c0,1.9,1.3,2.1,2.9,2.1c0.9,0,1.6-0.1,2.2-0.3L172.9,315.9L172.9,315.9z"/>
	<path d="M176.4,320.2v-9.9h5.2c0.1,0.2,0.1,0.5,0,0.6H177v3.9h4.3c0.1,0.2,0.1,0.5,0,0.6H177v4.1h4.5c0.1,0.2,0.1,0.5,0,0.6
		L176.4,320.2L176.4,320.2z"/>
</g>
<g>
	<path class="st1" d="M142.1,232.3c0,14.5-9.6,26.8-22.9,30.8c-0.6,0.2-3.6,0.8-4.4,0.8"/>
	<g>
		<path class="st0" d="M106.4,263.9c-2.5-0.2-3.9-0.4-4.8-0.7c-13.7-3.9-23.7-16.5-23.7-31.4c0-12.8,7.4-23.9,18.1-29.2"/>
		<line class="st1" x1="117.8" y1="201" x2="105.1" y2="197.6"/>
		<path class="st1" d="M117.4,201c14.1,3.4,24.7,16.1,24.7,31.3"/>
		<path class="st1" d="M106.2,197.9c-4-0.8-7.4-3.3-9.4-6.8c-1.2-2.1-1.9-4.5-1.9-7c0-7.8,7.2-14.1,14.9-14.1"/>
		<line class="st0" x1="110.6" y1="181.8" x2="110.6" y2="213.5"/>
	</g>
</g>
<g>
	<path d="M107.8,73.5c0.6-0.2,1.5-0.2,2.2,0l0.3,3h0.2c0.7-2.4,3.3-3.3,6.8-3.3c4,0,7,1.6,7,5.9v9.5c0,4.2-3,5.8-7,5.8
		c-3.5,0-6.1-0.9-6.8-3.3h-0.2l0.2,3.3v8.2c-0.8,0.2-1.9,0.2-2.7,0V73.5z M121.5,79.9c0-3.9-2.3-4.4-5.1-4.4c-3.8,0-5,0.9-6,3.6v9.2
		c1,2.6,2.1,3.6,6,3.6c2.8,0,5.1-0.5,5.1-4.3V79.9z"/>
	<path d="M145.6,84.7c-3.2,0.2-9.2,0.2-13,0v3c0,3.7,2.5,4.2,5.7,4.2c2.6,0,4.2-0.2,6.4-0.6c0.2,0.6,0.2,1.7,0,2.4
		c-2.4,0.5-4.6,0.7-6.8,0.7c-5,0-8-1.6-8-6v-9.1c0-4.5,3.1-6.1,7.9-6.1c4.9,0,7.8,2,7.8,6.5L145.6,84.7L145.6,84.7z M143,79.7
		c0-3.7-2.4-4.2-5.2-4.2s-5.2,0.5-5.2,4.2v3.1l3.4-0.2h7V79.7z"/>
	<path d="M165.3,79.9c0-3.9-2.3-4.4-5.1-4.4c-3.8,0-5,0.9-6,3.6v14.7c-0.8,0.2-1.9,0.2-2.7,0V73.6c0.6-0.2,1.5-0.2,2.2,0l0.3,2.9
		h0.2c0.7-2.4,3.3-3.3,6.8-3.3c4,0,7,1.6,7,5.8v14.9c-0.8,0.2-1.9,0.2-2.7,0V79.9z"/>
</g>
<g>
	<path class="st2" d="M189.7,87.9c0,4.7-3.2,6.5-8.6,6.5c-2.3,0-4.8-0.2-7.1-0.6c-0.2-0.6-0.2-1.7,0-2.4c2.5,0.4,4.6,0.5,7.1,0.5
		c3.2,0,5.8-0.6,5.8-4.3v-1.7c0-2.5-1.2-2.8-3.3-3.5l-4.9-1.6c-3.3-1.1-4.9-2.3-4.9-5.2v-2.3c0-4.8,3.6-6.4,9-6.4
		c2.3,0,4.3,0.1,6.6,0.7c0.2,0.6,0.2,1.6,0,2.3c-2.4-0.4-4.2-0.6-6.6-0.6c-3.5,0-6.3,0.6-6.3,4.2V75c0,2.2,1.1,2.7,3.3,3.5l5,1.7
		c3.3,1.1,4.8,2,4.8,5.4L189.7,87.9L189.7,87.9z"/>
	<path class="st2" d="M210.8,88.4c0,4.4-3.2,6-8.2,6c-4.9,0-8.1-1.6-8.1-6v-9.1c0-4.5,3.2-6.1,8.1-6.1c4.9,0,8.2,1.6,8.2,6.1V88.4z
		 M208.1,79.7c0-3.7-2.5-4.2-5.5-4.2s-5.4,0.5-5.4,4.2v8.1c0,3.6,2.5,4.1,5.4,4.1s5.5-0.5,5.5-4.1V79.7z"/>
	<path class="st2" d="M230.8,91.1h-0.2c-0.7,2.4-3.3,3.3-6.8,3.3c-4,0-6.9-1.6-6.9-5.8V73.7c0.8-0.2,1.9-0.2,2.7,0v14
		c0,3.8,2.3,4.3,5,4.3c3.8,0,4.9-1,5.9-3.6V73.7c0.8-0.2,1.9-0.2,2.7,0v20.4c-0.6,0.2-1.5,0.2-2.2,0L230.8,91.1z"/>
</g>
<g>
	<path class="st2" d="M238.5,73.6c0.7-0.1,1.4-0.1,2.2,0l0.3,3.1h0.2c0.7-2.4,3.2-3.5,6.7-3.5c0.2,0.7,0.2,1.8,0,2.5
		c-4.3,0-5.5,1-6.6,3.8V94c-0.8,0.2-1.9,0.2-2.7,0L238.5,73.6L238.5,73.6z"/>
	<path class="st2" d="M250.5,79.1c0-4.5,2.9-6,7.6-6c2,0,3.9,0.1,6,0.6c0.2,0.7,0.2,1.7,0,2.4c-2-0.4-3.4-0.5-5.8-0.5
		c-2.7,0-5.2,0.5-5.2,4.2v8.1c0,3.6,2.5,4.1,5.2,4.1c2.4,0,3.8-0.2,5.8-0.6c0.2,0.7,0.2,1.7,0,2.4c-2.2,0.5-4,0.7-6,0.7
		c-4.7,0-7.6-1.6-7.6-6V79.1z"/>
</g>
<g>
	<path class="st1" d="M309.5,195.1c0,14.5-9.6,26.8-22.9,30.8c-0.6,0.2-3.6,0.8-4.4,0.8"/>
	<g>
		<path class="st0" d="M273.8,226.7c-2.5-0.2-3.9-0.4-4.8-0.7c-13.7-3.9-23.7-16.5-23.7-31.4c0-12.8,7.4-23.9,18.1-29.2"/>
		<line class="st1" x1="285.1" y1="163.8" x2="272.5" y2="160.4"/>
		<path class="st1" d="M284.8,163.8c14.1,3.4,24.7,16.1,24.7,31.3"/>
		<path class="st1" d="M273.5,160.7c-4-0.8-7.4-3.3-9.4-6.8c-1.2-2.1-1.9-4.5-1.9-7c0-7.8,7.2-14.1,14.9-14.1"/>
		<line class="st0" x1="277.9" y1="144.7" x2="277.9" y2="176.3"/>
	</g>
</g>
<g>
	<path d="M240.8,258c0,5.5-3.8,7.4-9.5,7.4s-9.5-1.8-9.5-7.4v-13c0-5.5,3.8-7.3,9.5-7.3s9.5,1.8,9.5,7.3V258z M238.1,245.4
		c0-4.6-3.1-5.2-6.8-5.2c-3.6,0-6.8,0.6-6.8,5.2v12.3c0,4.5,3.2,5.2,6.8,5.2s6.8-0.6,6.8-5.2V245.4z"/>
	<path d="M255.7,253l-7.6,11.9c-0.8,0.2-2,0.2-2.8,0l8.8-13.8l-8.2-12.8c0.8-0.2,2.1-0.2,2.9,0l6.9,11l7-11c0.8-0.2,2-0.2,2.8,0
		l-8.2,12.8l8.8,13.8c-0.8,0.2-2.2,0.2-2.9,0L255.7,253z"/>
	<path d="M276.6,253.7l-8.8-15.4c0.8-0.2,2.1-0.2,2.8,0l7.4,13.2l7.4-13.2c0.8-0.2,2-0.2,2.8,0l-8.9,15.4v11.2
		c-0.8,0.2-1.9,0.2-2.7,0L276.6,253.7L276.6,253.7z"/>
	<path class="st2" d="M311.3,258c0,5.5-3.8,7.4-9.5,7.4s-9.5-1.8-9.5-7.4v-13c0-5.5,3.8-7.3,9.5-7.3s9.5,1.8,9.5,7.3V258z
		 M308.5,245.4c0-4.6-3.1-5.2-6.8-5.2c-3.6,0-6.8,0.6-6.8,5.2v12.3c0,4.5,3.2,5.2,6.8,5.2c3.6,0,6.8-0.6,6.8-5.2V245.4z"/>
	<path class="st2" d="M333,258.9c0,4.7-3.2,6.5-8.6,6.5c-2.3,0-4.8-0.2-7.1-0.6c-0.2-0.6-0.2-1.7,0-2.4c2.5,0.4,4.6,0.5,7.1,0.5
		c3.2,0,5.8-0.6,5.8-4.3v-1.7c0-2.5-1.2-2.8-3.3-3.5l-4.9-1.6c-3.3-1.1-4.9-2.3-4.9-5.2v-2.3c0-4.8,3.6-6.4,9-6.4
		c2.3,0,4.3,0.1,6.6,0.7c0.2,0.6,0.2,1.6,0,2.3c-2.4-0.4-4.2-0.6-6.6-0.6c-3.5,0-6.3,0.6-6.3,4.2v1.5c0,2.2,1.1,2.7,3.3,3.5l5,1.7
		c3.3,1.1,4.8,2,4.8,5.4v2.3H333z"/>
</g>
<g>
	<path class="st2" d="M283,84.7c-3.2,0.2-9.2,0.2-13,0v3c0,3.7,2.5,4.2,5.7,4.2c2.6,0,4.2-0.2,6.4-0.6c0.2,0.6,0.2,1.7,0,2.4
		c-2.4,0.5-4.6,0.7-6.8,0.7c-5,0-8-1.6-8-6v-9.1c0-4.5,3.1-6.1,7.9-6.1c4.9,0,7.8,2,7.8,6.5V84.7z M280.3,79.7
		c0-3.7-2.4-4.2-5.2-4.2c-2.8,0-5.2,0.5-5.2,4.2v3.1l3.4-0.2h7L280.3,79.7L280.3,79.7z"/>
</g>
<g>
	<g>
		<path d="M30.3,296.2c0,5.5-3.8,7.4-9.5,7.4s-9.5-1.8-9.5-7.4v-13c0-5.5,3.8-7.3,9.5-7.3s9.5,1.8,9.5,7.3V296.2z M27.5,283.6
			c0-4.6-3.1-5.2-6.8-5.2c-3.6,0-6.8,0.6-6.8,5.2v12.3c0,4.5,3.2,5.2,6.8,5.2s6.8-0.6,6.8-5.2V283.6z"/>
		<path d="M36.8,282.6c0.6-0.2,1.5-0.2,2.2,0l0.3,3h0.2c0.7-2.4,3.3-3.3,6.8-3.3c4,0,7,1.6,7,5.9v9.5c0,4.2-3,5.8-7,5.8
			c-3.5,0-6.1-0.9-6.8-3.3h-0.2l0.2,3.3v8.2c-0.8,0.2-1.9,0.2-2.7,0V282.6z M50.5,289.1c0-3.9-2.3-4.4-5.1-4.4c-3.8,0-5,0.9-6,3.6
			v9.2c1,2.6,2.1,3.6,6,3.6c2.8,0,5.1-0.5,5.1-4.3V289.1z"/>
		<path d="M74.6,293.8c-3.2,0.2-9.2,0.2-13,0v3c0,3.7,2.5,4.2,5.7,4.2c2.6,0,4.2-0.2,6.4-0.6c0.2,0.6,0.2,1.7,0,2.4
			c-2.4,0.5-4.6,0.7-6.8,0.7c-5,0-8-1.6-8-6v-9.1c0-4.5,3.1-6.1,7.9-6.1c4.9,0,7.8,2,7.8,6.5V293.8z M72,288.9
			c0-3.7-2.4-4.2-5.2-4.2c-2.8,0-5.2,0.5-5.2,4.2v3.1l3.4-0.2h7V288.9z"/>
		<path d="M94.3,289.1c0-3.9-2.3-4.4-5.1-4.4c-3.8,0-5,0.9-6,3.6V303c-0.8,0.2-1.9,0.2-2.7,0v-20.4c0.6-0.2,1.5-0.2,2.2,0l0.3,2.9
			h0.2c0.7-2.4,3.3-3.3,6.8-3.3c4,0,7,1.6,7,5.8v14.9c-0.8,0.2-1.9,0.2-2.7,0C94.3,302.9,94.3,289.1,94.3,289.1z"/>
	</g>
	<g>
		<path class="st2" d="M119.3,297.1c0,4.7-3.2,6.5-8.6,6.5c-2.3,0-4.8-0.2-7.1-0.6c-0.2-0.6-0.2-1.7,0-2.4c2.5,0.4,4.6,0.5,7.1,0.5
			c3.2,0,5.8-0.6,5.8-4.3V295c0-2.5-1.2-2.8-3.3-3.5l-4.9-1.6c-3.3-1.1-4.9-2.3-4.9-5.2v-2.3c0-4.8,3.6-6.4,9-6.4
			c2.3,0,4.3,0.1,6.6,0.7c0.2,0.6,0.2,1.6,0,2.3c-2.4-0.4-4.2-0.6-6.6-0.6c-3.5,0-6.3,0.6-6.3,4.2v1.5c0,2.2,1.1,2.7,3.3,3.5l5,1.7
			c3.3,1.1,4.8,2,4.8,5.4L119.3,297.1L119.3,297.1z"/>
		<path class="st2" d="M139.6,297.5c0,4.4-3.2,6-8.2,6c-4.9,0-8.1-1.6-8.1-6v-9.1c0-4.5,3.2-6.1,8.1-6.1c4.9,0,8.2,1.6,8.2,6.1
			V297.5z M137,288.9c0-3.7-2.5-4.2-5.5-4.2s-5.4,0.5-5.4,4.2v8.1c0,3.6,2.5,4.1,5.4,4.1c3,0,5.5-0.5,5.5-4.1V288.9z"/>
		<path class="st2" d="M159,300.3h-0.2c-0.7,2.4-3.3,3.3-6.8,3.3c-4,0-6.9-1.6-6.9-5.8v-14.9c0.8-0.2,1.9-0.2,2.7,0v14
			c0,3.8,2.3,4.3,5,4.3c3.8,0,4.9-1,5.9-3.6v-14.7c0.8-0.2,1.9-0.2,2.7,0v20.4c-0.6,0.2-1.5,0.2-2.2,0L159,300.3z"/>
	</g>
	<g>
		<path class="st2" d="M168,282.7c0.7-0.1,1.4-0.1,2.2,0l0.3,3.1h0.2c0.7-2.4,3.2-3.5,6.7-3.5c0.2,0.7,0.2,1.8,0,2.5
			c-4.3,0-5.5,1-6.6,3.8v14.5c-0.8,0.2-1.9,0.2-2.7,0L168,282.7L168,282.7z"/>
		<path class="st2" d="M180.1,288.3c0-4.5,2.9-6,7.6-6c2,0,3.9,0.1,6,0.6c0.2,0.7,0.2,1.7,0,2.4c-2-0.4-3.4-0.5-5.8-0.5
			c-2.7,0-5.2,0.5-5.2,4.2v8.1c0,3.6,2.5,4.1,5.2,4.1c2.4,0,3.8-0.2,5.8-0.6c0.2,0.7,0.2,1.7,0,2.4c-2.2,0.5-4,0.7-6,0.7
			c-4.7,0-7.6-1.6-7.6-6V288.3z"/>
	</g>
	<g>
		<path class="st2" d="M214.5,293.8c-3.2,0.2-9.2,0.2-13,0v3c0,3.7,2.5,4.2,5.7,4.2c2.6,0,4.2-0.2,6.4-0.6c0.2,0.6,0.2,1.7,0,2.4
			c-2.4,0.5-4.6,0.7-6.8,0.7c-5,0-8-1.6-8-6v-9.1c0-4.5,3.1-6.1,7.9-6.1c4.9,0,7.8,2,7.8,6.5L214.5,293.8L214.5,293.8z M211.9,288.9
			c0-3.7-2.4-4.2-5.2-4.2s-5.2,0.5-5.2,4.2v3.1l3.4-0.2h7V288.9z"/>
	</g>
</g>
<line class="st0" x1="67.9" y1="33.9" x2="67.9" y2="65.5"/>
</svg>
