<svg id="Layer_4" data-name="Layer 4" xmlns="http://www.w3.org/2000/svg" viewBox="0 0 373.38 302.33"><defs><style>.cls-1,.cls-2{fill:none;stroke-linecap:round;stroke-linejoin:round;stroke-width:4px;}.cls-1{stroke:#231f20;}.cls-2{stroke:#f15a29;}.cls-3{fill:#231f20;}.cls-4{fill:#f15a29;}</style></defs><title>LogosV2</title><path class="cls-1" d="M153.5,273.47a22.13,22.13,0,0,1-4.81-.69A32.69,32.69,0,0,1,143,212.09" transform="translate(-71.67 -177.55)"/><line class="cls-2" x1="93.18" y1="32.99" x2="80.56" y2="29.61"/><path class="cls-2" d="M164.52,210.55a32.19,32.19,0,0,1,1.79,62.1,31.31,31.31,0,0,1-4.36.82" transform="translate(-71.67 -177.55)"/><path class="cls-2" d="M153.23,207.4a14.08,14.08,0,0,1-11.29-13.79c0-7.76,7.17-14.06,14.93-14.06" transform="translate(-71.67 -177.55)"/><path class="cls-3" d="M112.68,477.13c0,2.07-1.37,2.76-3.42,2.76s-3.42-.69-3.42-2.76v-4.82c0-2.05,1.36-2.74,3.42-2.74s3.42.69,3.42,2.74Zm-.68-4.77c0-1.91-1.27-2.16-2.74-2.16s-2.75.25-2.75,2.16v4.74c0,1.86,1.28,2.13,2.75,2.13S112,479,112,477.1Z" transform="translate(-71.67 -177.55)"/><path class="cls-3" d="M115.14,472.3c0-2.07,1.33-2.73,3.48-2.73a11.28,11.28,0,0,1,2.61.24,1,1,0,0,1,0,.58,16,16,0,0,0-2.58-.19c-1.55,0-2.84.27-2.84,2.16v4.72c0,1.86,1.29,2.15,2.84,2.15a7.87,7.87,0,0,0,2.62-.45,1.31,1.31,0,0,1,.14.58,7.6,7.6,0,0,1-2.79.53c-2.15,0-3.48-.66-3.48-2.75Z" transform="translate(-71.67 -177.55)"/><path class="cls-3" d="M123.48,472.3c0-2.07,1.33-2.73,3.48-2.73a11.28,11.28,0,0,1,2.61.24,1,1,0,0,1,0,.58,16,16,0,0,0-2.58-.19c-1.55,0-2.84.27-2.84,2.16v4.72c0,1.86,1.29,2.15,2.84,2.15a7.87,7.87,0,0,0,2.62-.45,1.31,1.31,0,0,1,.14.58,7.6,7.6,0,0,1-2.79.53c-2.15,0-3.48-.66-3.48-2.75Z" transform="translate(-71.67 -177.55)"/><path class="cls-3" d="M132.15,469.79a1.27,1.27,0,0,1,.67,0v9.92a1.27,1.27,0,0,1-.67,0Z" transform="translate(-71.67 -177.55)"/><path class="cls-3" d="M135.94,479.71v-9.92h3c2.22,0,3.59.69,3.59,2.73V477c0,2-1.37,2.75-3.59,2.75Zm5.94-7.11c0-1.89-1.32-2.16-2.91-2.16h-2.35v8.61H139c1.59,0,2.91-.3,2.91-2.15Z" transform="translate(-71.67 -177.55)"/><path class="cls-3" d="M145.35,479.71v-9.92h5.16a1.09,1.09,0,0,1,0,.62H146v3.93h4.34a1.06,1.06,0,0,1,0,.61H146v4.13h4.49a1.12,1.12,0,0,1,0,.63Z" transform="translate(-71.67 -177.55)"/><path class="cls-3" d="M153.63,470.81v8.9a1.31,1.31,0,0,1-.68,0v-9.92a1.84,1.84,0,0,1,.81,0l5.39,9v-9a1.27,1.27,0,0,1,.67,0v9.92a2.27,2.27,0,0,1-.9,0Z" transform="translate(-71.67 -177.55)"/><path class="cls-3" d="M164.76,470.41H161.7a1.09,1.09,0,0,1,0-.62h6.78a1.09,1.09,0,0,1,0,.62h-3v9.3a1.27,1.27,0,0,1-.67,0Z" transform="translate(-71.67 -177.55)"/><path class="cls-3" d="M174.15,476.42h-4.1l-1.15,3.29a1.31,1.31,0,0,1-.68,0l3.54-9.92a1.42,1.42,0,0,1,.71,0l3.54,9.92a1.42,1.42,0,0,1-.71,0Zm-2.06-5.79-1.83,5.21h3.68Z" transform="translate(-71.67 -177.55)"/><path class="cls-3" d="M178.2,479.71v-9.92a1.27,1.27,0,0,1,.67,0v9.29h4.41a1.12,1.12,0,0,1,0,.63Z" transform="translate(-71.67 -177.55)"/><path class="cls-3" d="M188.32,472.3c0-2.07,1.34-2.73,3.48-2.73a11.18,11.18,0,0,1,2.61.24,1,1,0,0,1,0,.58,15.77,15.77,0,0,0-2.58-.19c-1.54,0-2.83.27-2.83,2.16v4.72c0,1.86,1.29,2.15,2.83,2.15a7.88,7.88,0,0,0,2.63-.45,1.46,1.46,0,0,1,.13.58,7.56,7.56,0,0,1-2.79.53c-2.14,0-3.48-.66-3.48-2.75Z" transform="translate(-71.67 -177.55)"/><path class="cls-3" d="M203.5,477.13c0,2.07-1.36,2.76-3.42,2.76s-3.42-.69-3.42-2.76v-4.82c0-2.05,1.37-2.74,3.42-2.74s3.42.69,3.42,2.74Zm-.67-4.77c0-1.91-1.28-2.16-2.75-2.16s-2.74.25-2.74,2.16v4.74c0,1.86,1.27,2.13,2.74,2.13s2.75-.27,2.75-2.13Z" transform="translate(-71.67 -177.55)"/><path class="cls-3" d="M206.29,479.71v-9.92a1.31,1.31,0,0,1,.68,0v9.29h4.41a1.12,1.12,0,0,1,0,.63Z" transform="translate(-71.67 -177.55)"/><path class="cls-3" d="M213.3,479.71v-9.92a1.27,1.27,0,0,1,.67,0v9.29h4.41a1.12,1.12,0,0,1,0,.63Z" transform="translate(-71.67 -177.55)"/><path class="cls-3" d="M220.3,479.71v-9.92h5.16a1.09,1.09,0,0,1,0,.62H221v3.93h4.33a1.06,1.06,0,0,1,0,.61H221v4.13h4.48a1.12,1.12,0,0,1,0,.63Z" transform="translate(-71.67 -177.55)"/><path class="cls-3" d="M233.37,475.37h-2.46a1,1,0,0,1,0-.58H234v4.57a8,8,0,0,1-2.88.53c-2.19,0-3.55-.66-3.55-2.75V472.3c0-2.07,1.36-2.73,3.55-2.73a11.92,11.92,0,0,1,2.69.24,1,1,0,0,1,0,.58,16.89,16.89,0,0,0-2.66-.19c-1.59,0-2.91.27-2.91,2.16v4.72c0,1.86,1.32,2.15,2.91,2.15a7.41,7.41,0,0,0,2.21-.3Z" transform="translate(-71.67 -177.55)"/><path class="cls-3" d="M236.8,479.71v-9.92H242a1.09,1.09,0,0,1,0,.62h-4.48v3.93h4.33a1.06,1.06,0,0,1,0,.61h-4.33v4.13H242a1.12,1.12,0,0,1,0,.63Z" transform="translate(-71.67 -177.55)"/><path class="cls-2" d="M202.53,387.78a32.2,32.2,0,0,1-22.87,30.81,31.07,31.07,0,0,1-4.36.81" transform="translate(-71.67 -177.55)"/><path class="cls-1" d="M166.86,419.4a22.21,22.21,0,0,1-4.81-.68,32.7,32.7,0,0,1-5.67-60.7" transform="translate(-71.67 -177.55)"/><line class="cls-2" x1="106.53" y1="178.93" x2="93.92" y2="175.54"/><path class="cls-2" d="M177.87,356.48a32.2,32.2,0,0,1,24.66,31.3" transform="translate(-71.67 -177.55)"/><path class="cls-2" d="M166.59,353.34a14,14,0,0,1-11.29-13.79c0-7.76,7.16-14.06,14.93-14.06" transform="translate(-71.67 -177.55)"/><line class="cls-1" x1="99.33" y1="159.76" x2="99.33" y2="191.39"/><path class="cls-2" d="M421.55,405.9a32.18,32.18,0,0,1-22.87,30.81,31.07,31.07,0,0,1-4.36.81" transform="translate(-71.67 -177.55)"/><path class="cls-1" d="M385.88,437.52a22.21,22.21,0,0,1-4.81-.68,32.7,32.7,0,0,1-5.67-60.7" transform="translate(-71.67 -177.55)"/><line class="cls-2" x1="325.55" y1="197.05" x2="312.94" y2="193.66"/><path class="cls-2" d="M396.89,374.6a32.2,32.2,0,0,1,24.66,31.3" transform="translate(-71.67 -177.55)"/><path class="cls-2" d="M385.61,371.46a14,14,0,0,1-11.29-13.79c0-7.76,7.16-14.06,14.93-14.06" transform="translate(-71.67 -177.55)"/><line class="cls-1" x1="318.35" y1="177.88" x2="318.35" y2="209.51"/><path class="cls-3" d="M352.89,468.8c0,5.52-3.8,7.35-9.52,7.35s-9.52-1.83-9.52-7.35v-13c0-5.48,3.8-7.32,9.52-7.32s9.52,1.84,9.52,7.32Zm-2.76-12.64c0-4.6-3.12-5.2-6.76-5.2s-6.76.6-6.76,5.2v12.32c0,4.52,3.16,5.15,6.76,5.15s6.76-.63,6.76-5.15Z" transform="translate(-71.67 -177.55)"/><path class="cls-3" d="M367.77,463.8l-7.6,11.87a8.46,8.46,0,0,1-2.84,0l8.84-13.75L358,449.08a8.7,8.7,0,0,1,2.88,0l6.92,11,7-11a8.23,8.23,0,0,1,2.8,0l-8.2,12.8,8.84,13.79a8.7,8.7,0,0,1-2.88,0Z" transform="translate(-71.67 -177.55)"/><path class="cls-3" d="M388.69,464.52l-8.76-15.44a8.46,8.46,0,0,1,2.84,0l7.36,13.2,7.44-13.2a8,8,0,0,1,2.76,0l-8.92,15.44v11.15a7.77,7.77,0,0,1-2.72,0Z" transform="translate(-71.67 -177.55)"/><path class="cls-4" d="M423.37,468.8c0,5.52-3.8,7.35-9.52,7.35s-9.52-1.83-9.52-7.35v-13c0-5.48,3.8-7.32,9.52-7.32s9.52,1.84,9.52,7.32Zm-2.76-12.64c0-4.6-3.12-5.2-6.76-5.2s-6.76.6-6.76,5.2v12.32c0,4.52,3.16,5.15,6.76,5.15s6.76-.63,6.76-5.15Z" transform="translate(-71.67 -177.55)"/><path class="cls-4" d="M445.05,469.68c0,4.72-3.16,6.47-8.56,6.47a35,35,0,0,1-7.12-.64,6,6,0,0,1,0-2.39,47,47,0,0,0,7.12.51c3.2,0,5.84-.55,5.84-4.27v-1.72c0-2.52-1.16-2.84-3.28-3.52l-4.88-1.64c-3.32-1.08-4.88-2.32-4.88-5.2V455c0-4.76,3.64-6.44,9-6.44a26.76,26.76,0,0,1,6.64.68,5.48,5.48,0,0,1,0,2.28,36.77,36.77,0,0,0-6.6-.56c-3.52,0-6.28.64-6.28,4.24v1.52c0,2.24,1.12,2.72,3.28,3.48l5,1.68c3.28,1.12,4.8,2,4.8,5.36Z" transform="translate(-71.67 -177.55)"/><path class="cls-3" d="M90.7,451.67c0,5.52-3.8,7.36-9.52,7.36s-9.51-1.84-9.51-7.36V438.72c0-5.48,3.79-7.32,9.51-7.32s9.52,1.84,9.52,7.32ZM87.94,439c0-4.6-3.12-5.2-6.76-5.2s-6.76.6-6.76,5.2v12.31c0,4.52,3.16,5.16,6.76,5.16s6.76-.64,6.76-5.16Z" transform="translate(-71.67 -177.55)"/><path class="cls-3" d="M97.22,438.12a4.92,4.92,0,0,1,2.16,0l.28,3h.2c.68-2.36,3.32-3.28,6.8-3.28,4,0,7,1.6,7,5.88v9.51c0,4.24-3,5.84-7,5.84-3.48,0-6.12-.88-6.8-3.28h-.2L99.9,459v8.24a7.54,7.54,0,0,1-2.68,0Zm13.72,6.44c0-3.92-2.28-4.36-5.08-4.36-3.84,0-5,.92-6,3.64V453c1,2.63,2.12,3.59,6,3.59,2.8,0,5.08-.52,5.08-4.28Z" transform="translate(-71.67 -177.55)"/><path class="cls-3" d="M135.06,449.32c-3.16.16-9.24.16-13,0v3c0,3.68,2.48,4.2,5.68,4.2a29.79,29.79,0,0,0,6.44-.64,5.86,5.86,0,0,1,0,2.36,34.14,34.14,0,0,1-6.76.72c-5,0-8-1.64-8-6v-9.12c0-4.52,3.12-6.08,7.92-6.08s7.8,2,7.8,6.48Zm-2.64-5c0-3.68-2.44-4.16-5.16-4.16s-5.24.48-5.24,4.16v3.12l3.36-.2h7Z" transform="translate(-71.67 -177.55)"/><path class="cls-3" d="M154.78,444.56c0-3.92-2.28-4.36-5.08-4.36-3.84,0-5,.92-6,3.64v14.71a7.54,7.54,0,0,1-2.68,0V438.2a4.92,4.92,0,0,1,2.16,0l.28,2.88h.2c.68-2.36,3.32-3.28,6.8-3.28,4,0,7,1.56,7,5.84v14.91a7.54,7.54,0,0,1-2.68,0Z" transform="translate(-71.67 -177.55)"/><path class="cls-4" d="M179.72,452.55c0,4.72-3.16,6.48-8.56,6.48a35.72,35.72,0,0,1-7.12-.64,6.06,6.06,0,0,1,0-2.4,47,47,0,0,0,7.12.52c3.2,0,5.84-.56,5.84-4.28v-1.72c0-2.51-1.16-2.83-3.28-3.51l-4.88-1.64c-3.32-1.08-4.88-2.32-4.88-5.2v-2.32c0-4.76,3.64-6.44,9-6.44a26.76,26.76,0,0,1,6.64.68,5.48,5.48,0,0,1,0,2.28,36.77,36.77,0,0,0-6.6-.56c-3.52,0-6.28.64-6.28,4.24v1.52c0,2.24,1.12,2.72,3.28,3.48l5,1.68c3.28,1.12,4.8,2,4.8,5.36Z" transform="translate(-71.67 -177.55)"/><path class="cls-4" d="M200.8,453c0,4.39-3.24,6-8.16,6s-8.12-1.64-8.12-6v-9.12c0-4.48,3.24-6.08,8.12-6.08s8.16,1.6,8.16,6.08Zm-2.68-8.64c0-3.68-2.52-4.16-5.48-4.16s-5.44.48-5.44,4.16v8.11c0,3.64,2.48,4.12,5.44,4.12s5.48-.48,5.48-4.12Z" transform="translate(-71.67 -177.55)"/><path class="cls-4" d="M220.84,455.75h-.2c-.68,2.4-3.28,3.28-6.76,3.28-4,0-6.92-1.56-6.92-5.84V438.32a7.54,7.54,0,0,1,2.68,0v14c0,3.76,2.32,4.28,5,4.28,3.8,0,4.92-1,5.92-3.56V438.32a7.54,7.54,0,0,1,2.68,0v20.43a4.92,4.92,0,0,1-2.16,0Z" transform="translate(-71.67 -177.55)"/><path class="cls-4" d="M228.47,438.2a6.53,6.53,0,0,1,2.16,0l.28,3.08h.2c.68-2.44,3.2-3.48,6.68-3.48a6.47,6.47,0,0,1,0,2.48c-4.32,0-5.52,1-6.64,3.8v14.47a7.54,7.54,0,0,1-2.68,0Z" transform="translate(-71.67 -177.55)"/><path class="cls-4" d="M240.55,443.76c0-4.48,2.92-6,7.6-6a29.28,29.28,0,0,1,6,.56,5.52,5.52,0,0,1,0,2.36,25.92,25.92,0,0,0-5.76-.52c-2.72,0-5.2.48-5.2,4.2v8.07c0,3.64,2.48,4.12,5.2,4.12a23.3,23.3,0,0,0,5.76-.64,6.24,6.24,0,0,1,0,2.36,27,27,0,0,1-6,.72c-4.72,0-7.6-1.64-7.6-6Z" transform="translate(-71.67 -177.55)"/><path class="cls-4" d="M273,449.32c-3.15.16-9.23.16-13,0v3c0,3.68,2.48,4.2,5.68,4.2a29.64,29.64,0,0,0,6.43-.64,5.86,5.86,0,0,1,0,2.36,34,34,0,0,1-6.75.72c-5,0-8-1.64-8-6v-9.12c0-4.52,3.12-6.08,7.92-6.08s7.79,2,7.79,6.48Zm-2.64-5c0-3.68-2.43-4.16-5.15-4.16s-5.24.48-5.24,4.16v3.12l3.36-.2h7Z" transform="translate(-71.67 -177.55)"/><line class="cls-1" x1="85.97" y1="13.82" x2="85.97" y2="45.45"/><path class="cls-3" d="M237.36,261.89c0,2.07-1.36,2.76-3.42,2.76s-3.42-.69-3.42-2.76v-4.82c0-2,1.37-2.74,3.42-2.74s3.42.69,3.42,2.74Zm-.67-4.77c0-1.91-1.28-2.16-2.75-2.16s-2.74.25-2.74,2.16v4.74c0,1.86,1.27,2.13,2.74,2.13s2.75-.27,2.75-2.13Z" transform="translate(-71.67 -177.55)"/><path class="cls-3" d="M239.82,257.06c0-2.07,1.34-2.73,3.48-2.73a11.18,11.18,0,0,1,2.61.24,1,1,0,0,1,0,.58,15.77,15.77,0,0,0-2.58-.19c-1.54,0-2.83.27-2.83,2.16v4.72c0,1.86,1.29,2.15,2.83,2.15a7.88,7.88,0,0,0,2.63-.45,1.46,1.46,0,0,1,.13.58,7.56,7.56,0,0,1-2.79.53c-2.14,0-3.48-.66-3.48-2.75Z" transform="translate(-71.67 -177.55)"/><path class="cls-3" d="M248.16,257.06c0-2.07,1.34-2.73,3.48-2.73a11.18,11.18,0,0,1,2.61.24,1,1,0,0,1,0,.58,15.77,15.77,0,0,0-2.58-.19c-1.54,0-2.83.27-2.83,2.16v4.72c0,1.86,1.29,2.15,2.83,2.15a7.88,7.88,0,0,0,2.63-.45,1.46,1.46,0,0,1,.13.58,7.56,7.56,0,0,1-2.79.53c-2.14,0-3.48-.66-3.48-2.75Z" transform="translate(-71.67 -177.55)"/><path class="cls-3" d="M256.83,254.55a1.31,1.31,0,0,1,.68,0v9.92a1.31,1.31,0,0,1-.68,0Z" transform="translate(-71.67 -177.55)"/><path class="cls-3" d="M260.63,264.47v-9.92h3c2.22,0,3.58.69,3.58,2.73v4.44c0,2-1.36,2.75-3.58,2.75Zm5.94-7.11c0-1.89-1.32-2.16-2.91-2.16H261.3v8.61h2.36c1.59,0,2.91-.3,2.91-2.15Z" transform="translate(-71.67 -177.55)"/><path class="cls-3" d="M270,264.47v-9.92h5.16a1.09,1.09,0,0,1,0,.62h-4.48v3.93H275a1.06,1.06,0,0,1,0,.61h-4.33v4.13h4.48a1.12,1.12,0,0,1,0,.63Z" transform="translate(-71.67 -177.55)"/><path class="cls-3" d="M278.31,255.57v8.9a1.27,1.27,0,0,1-.67,0v-9.92a1.84,1.84,0,0,1,.81,0l5.38,9.05v-9.05a1.31,1.31,0,0,1,.68,0v9.92a2.27,2.27,0,0,1-.9,0Z" transform="translate(-71.67 -177.55)"/><path class="cls-3" d="M289.44,255.17h-3.06a1.09,1.09,0,0,1,0-.62h6.78a1.09,1.09,0,0,1,0,.62h-3v9.3a1.31,1.31,0,0,1-.68,0Z" transform="translate(-71.67 -177.55)"/><path class="cls-3" d="M298.83,261.18h-4.09l-1.16,3.29a1.27,1.27,0,0,1-.67,0l3.54-9.92a1.38,1.38,0,0,1,.7,0l3.54,9.92a1.38,1.38,0,0,1-.7,0Zm-2.05-5.79L295,260.6h3.67Z" transform="translate(-71.67 -177.55)"/><path class="cls-3" d="M302.88,264.47v-9.92a1.31,1.31,0,0,1,.68,0v9.29H308a1.12,1.12,0,0,1,0,.63Z" transform="translate(-71.67 -177.55)"/><path class="cls-3" d="M313,257.06c0-2.07,1.33-2.73,3.48-2.73a11.28,11.28,0,0,1,2.61.24,1,1,0,0,1,0,.58,16,16,0,0,0-2.58-.19c-1.55,0-2.84.27-2.84,2.16v4.72c0,1.86,1.29,2.15,2.84,2.15a7.87,7.87,0,0,0,2.62-.45,1.31,1.31,0,0,1,.14.58,7.6,7.6,0,0,1-2.79.53c-2.15,0-3.48-.66-3.48-2.75Z" transform="translate(-71.67 -177.55)"/><path class="cls-3" d="M328.19,261.89c0,2.07-1.37,2.76-3.42,2.76s-3.42-.69-3.42-2.76v-4.82c0-2,1.36-2.74,3.42-2.74s3.42.69,3.42,2.74Zm-.68-4.77c0-1.91-1.27-2.16-2.74-2.16s-2.75.25-2.75,2.16v4.74c0,1.86,1.28,2.13,2.75,2.13s2.74-.27,2.74-2.13Z" transform="translate(-71.67 -177.55)"/><path class="cls-3" d="M331,264.47v-9.92a1.27,1.27,0,0,1,.67,0v9.29h4.41a1.12,1.12,0,0,1,0,.63Z" transform="translate(-71.67 -177.55)"/><path class="cls-3" d="M338,264.47v-9.92a1.31,1.31,0,0,1,.68,0v9.29h4.41a1.12,1.12,0,0,1,0,.63Z" transform="translate(-71.67 -177.55)"/><path class="cls-3" d="M345,264.47v-9.92h5.16a1.09,1.09,0,0,1,0,.62h-4.49v3.93H350a1.06,1.06,0,0,1,0,.61h-4.34v4.13h4.49a1.12,1.12,0,0,1,0,.63Z" transform="translate(-71.67 -177.55)"/><path class="cls-3" d="M358.05,260.13h-2.46a1,1,0,0,1,0-.58h3.11v4.57a8.08,8.08,0,0,1-2.88.53c-2.19,0-3.56-.66-3.56-2.75v-4.84c0-2.07,1.37-2.73,3.56-2.73a11.83,11.83,0,0,1,2.68.24,1,1,0,0,1,0,.58,16.76,16.76,0,0,0-2.65-.19c-1.59,0-2.91.27-2.91,2.16v4.72c0,1.86,1.32,2.15,2.91,2.15a7.34,7.34,0,0,0,2.2-.3Z" transform="translate(-71.67 -177.55)"/><path class="cls-3" d="M361.49,264.47v-9.92h5.16a1.09,1.09,0,0,1,0,.62h-4.49v3.93h4.34a1.06,1.06,0,0,1,0,.61h-4.34v4.13h4.49a1.12,1.12,0,0,1,0,.63Z" transform="translate(-71.67 -177.55)"/><path class="cls-3" d="M215.39,236.43c0,5.52-3.8,7.36-9.52,7.36s-9.52-1.84-9.52-7.36v-13c0-5.47,3.8-7.31,9.52-7.31s9.52,1.84,9.52,7.31Zm-2.76-12.64c0-4.6-3.12-5.19-6.76-5.19s-6.76.59-6.76,5.19v12.32c0,4.52,3.16,5.16,6.76,5.16s6.76-.64,6.76-5.16Z" transform="translate(-71.67 -177.55)"/><path class="cls-3" d="M221.91,222.87a4.92,4.92,0,0,1,2.16,0l.28,3h.2c.68-2.36,3.32-3.28,6.8-3.28,4,0,7,1.6,7,5.88V238c0,4.24-3,5.84-7,5.84-3.48,0-6.12-.88-6.8-3.28h-.2l.24,3.28V252a7.54,7.54,0,0,1-2.68,0Zm13.72,6.44c0-3.92-2.28-4.36-5.08-4.36-3.84,0-5,.92-6,3.64v9.16c1,2.64,2.12,3.6,6,3.6,2.8,0,5.08-.52,5.08-4.28Z" transform="translate(-71.67 -177.55)"/><path class="cls-3" d="M259.75,234.07c-3.16.16-9.24.16-13,0v3c0,3.68,2.48,4.2,5.68,4.2a29.79,29.79,0,0,0,6.44-.64,5.86,5.86,0,0,1,0,2.36,34.14,34.14,0,0,1-6.76.72c-5,0-8-1.64-8-6v-9.12c0-4.52,3.12-6.08,7.92-6.08s7.8,2,7.8,6.48Zm-2.64-5c0-3.68-2.44-4.16-5.16-4.16s-5.24.48-5.24,4.16v3.12l3.36-.2h7Z" transform="translate(-71.67 -177.55)"/><path class="cls-3" d="M279.47,229.31c0-3.92-2.28-4.36-5.08-4.36-3.84,0-5,.92-6,3.64v14.72a7.54,7.54,0,0,1-2.68,0V223a4.92,4.92,0,0,1,2.16,0l.28,2.88h.2c.68-2.36,3.32-3.28,6.8-3.28,4,0,7,1.56,7,5.84v14.92a7.54,7.54,0,0,1-2.68,0Z" transform="translate(-71.67 -177.55)"/><path class="cls-4" d="M304.4,237.31c0,4.72-3.16,6.48-8.56,6.48a35.72,35.72,0,0,1-7.12-.64,6.06,6.06,0,0,1,0-2.4,47,47,0,0,0,7.12.52c3.2,0,5.84-.56,5.84-4.28v-1.72c0-2.52-1.16-2.84-3.28-3.52l-4.88-1.64c-3.32-1.08-4.88-2.32-4.88-5.19v-2.33c0-4.75,3.64-6.43,9-6.43a26.76,26.76,0,0,1,6.64.68,5.47,5.47,0,0,1,0,2.28,36.77,36.77,0,0,0-6.6-.56c-3.52,0-6.28.64-6.28,4.23v1.52c0,2.24,1.12,2.72,3.28,3.48l5,1.68c3.28,1.12,4.8,2,4.8,5.36Z" transform="translate(-71.67 -177.55)"/><path class="cls-4" d="M325.48,237.75c0,4.4-3.24,6-8.16,6s-8.12-1.64-8.12-6v-9.12c0-4.48,3.24-6.08,8.12-6.08s8.16,1.6,8.16,6.08Zm-2.68-8.64c0-3.68-2.52-4.15-5.48-4.15s-5.44.47-5.44,4.15v8.12c0,3.64,2.48,4.12,5.44,4.12s5.48-.48,5.48-4.12Z" transform="translate(-71.67 -177.55)"/><path class="cls-4" d="M345.52,240.51h-.2c-.68,2.4-3.28,3.28-6.76,3.28-4,0-6.92-1.56-6.92-5.84V223.08a7.54,7.54,0,0,1,2.68,0v14c0,3.76,2.32,4.28,5,4.28,3.8,0,4.92-1,5.92-3.56V223.08a7.54,7.54,0,0,1,2.68,0v20.43a4.92,4.92,0,0,1-2.16,0Z" transform="translate(-71.67 -177.55)"/><path class="cls-4" d="M353.15,223a6.53,6.53,0,0,1,2.16,0l.28,3.08h.2c.68-2.44,3.2-3.48,6.68-3.48a6.47,6.47,0,0,1,0,2.48c-4.32,0-5.52,1-6.64,3.8v14.48a7.54,7.54,0,0,1-2.68,0Z" transform="translate(-71.67 -177.55)"/><path class="cls-4" d="M365.23,228.51c0-4.48,2.92-6,7.6-6a29.28,29.28,0,0,1,6,.56,5.22,5.22,0,0,1,0,2.36,25.92,25.92,0,0,0-5.76-.52c-2.72,0-5.2.48-5.2,4.2v8.08c0,3.64,2.48,4.12,5.2,4.12a23.3,23.3,0,0,0,5.76-.64,5.86,5.86,0,0,1,0,2.36,27,27,0,0,1-6,.72c-4.72,0-7.6-1.64-7.6-6Z" transform="translate(-71.67 -177.55)"/><path class="cls-4" d="M397.66,234.07c-3.16.16-9.24.16-13,0v3c0,3.68,2.48,4.2,5.68,4.2a29.79,29.79,0,0,0,6.44-.64,5.86,5.86,0,0,1,0,2.36,34.14,34.14,0,0,1-6.76.72c-5,0-8-1.64-8-6v-9.12c0-4.52,3.12-6.08,7.92-6.08s7.8,2,7.8,6.48Zm-2.64-5c0-3.68-2.44-4.16-5.16-4.16s-5.24.48-5.24,4.16v3.12L388,232h7Z" transform="translate(-71.67 -177.55)"/></svg>