<?xml version="1.0" encoding="utf-8"?>
<!-- Generator: Adobe Illustrator 23.0.1, SVG Export Plug-In . SVG Version: 6.00 Build 0)  -->
<svg version="1.1" id="Layer_1" xmlns="http://www.w3.org/2000/svg" xmlns:xlink="http://www.w3.org/1999/xlink" x="0px" y="0px"
	 viewBox="0 0 201.4 156.4" style="enable-background:new 0 0 201.4 156.4;" xml:space="preserve">
<style type="text/css">
	.st0{fill:#231F20;}
	.st1{fill:none;stroke:#F15B2B;stroke-width:4;stroke-linecap:round;stroke-linejoin:round;}
	.st2{fill:none;stroke:#231F20;stroke-width:4;stroke-linecap:round;stroke-linejoin:round;}
	.st3{fill:#F15B2B;}
</style>
<path class="st0" d="M41,153.6c0,2.1-1.4,2.8-3.4,2.8s-3.4-0.7-3.4-2.8v-4.8c0-2.1,1.4-2.7,3.4-2.7s3.4,0.7,3.4,2.7
	C41,148.8,41,153.6,41,153.6z M40.3,148.9c0-1.9-1.3-2.2-2.7-2.2s-2.8,0.2-2.8,2.2v4.7c0,1.9,1.3,2.1,2.8,2.1s2.7-0.2,2.7-2.1V148.9
	z"/>
<path class="st0" d="M43.5,148.8c0-2.1,1.3-2.7,3.5-2.7c0.9,0,1.8,0.1,2.6,0.2c0.1,0.2,0.1,0.4,0,0.6c-0.8-0.1-1.7-0.2-2.6-0.2
	c-1.5,0-2.8,0.3-2.8,2.2v4.7c0,1.9,1.3,2.1,2.8,2.1c0.9,0,1.8-0.1,2.6-0.4c0.1,0.2,0.1,0.4,0.1,0.6c-0.9,0.4-1.8,0.5-2.8,0.5
	c-2.2,0-3.5-0.7-3.5-2.8V148.8z"/>
<path class="st0" d="M51.8,148.8c0-2.1,1.3-2.7,3.5-2.7c0.9,0,1.8,0.1,2.6,0.2c0.1,0.2,0.1,0.4,0,0.6c-0.8-0.1-1.7-0.2-2.6-0.2
	c-1.5,0-2.8,0.3-2.8,2.2v4.7c0,1.9,1.3,2.1,2.8,2.1c0.9,0,1.8-0.1,2.6-0.4c0.1,0.2,0.1,0.4,0.1,0.6c-0.9,0.4-1.8,0.5-2.8,0.5
	c-2.2,0-3.5-0.7-3.5-2.8L51.8,148.8z"/>
<path class="st0" d="M60.5,146.3c0.2-0.1,0.5-0.1,0.7,0v9.9c-0.2,0.1-0.5,0.1-0.7,0V146.3z"/>
<path class="st0" d="M64.3,156.2v-9.9h3c2.2,0,3.6,0.7,3.6,2.7v4.5c0,2-1.4,2.8-3.6,2.8L64.3,156.2z M70.2,149.1
	c0-1.9-1.3-2.2-2.9-2.2h-2.3v8.6h2.4c1.6,0,2.9-0.3,2.9-2.1L70.2,149.1z"/>
<path class="st0" d="M73.7,156.2v-9.9h5.2c0.1,0.2,0.1,0.4,0,0.6h-4.5v3.9h4.3c0.1,0.2,0.1,0.4,0,0.6h-4.3v4.1h4.5
	c0.1,0.2,0.1,0.4,0,0.6H73.7z"/>
<path class="st0" d="M82,147.3v8.9c-0.2,0.1-0.5,0.1-0.7,0v-9.9c0.3-0.1,0.5-0.1,0.8,0l5.4,9v-9c0.2-0.1,0.4-0.1,0.7,0v9.9
	c-0.3,0.1-0.6,0.1-0.9,0L82,147.3z"/>
<path class="st0" d="M93.1,146.9H90c-0.1-0.2-0.1-0.4,0-0.6h6.8c0.1,0.2,0.1,0.4,0,0.6h-3v9.3c-0.2,0.1-0.4,0.1-0.7,0L93.1,146.9z"
	/>
<path class="st0" d="M102.5,152.9h-4.1l-1.2,3.3c-0.2,0.1-0.5,0.1-0.7,0l3.5-9.9c0.2-0.1,0.5-0.1,0.7,0l3.5,9.9
	c-0.2,0.1-0.5,0.1-0.7,0L102.5,152.9z M100.4,147.1l-1.8,5.2h3.7L100.4,147.1z"/>
<path class="st0" d="M106.5,156.2v-9.9c0.2-0.1,0.4-0.1,0.7,0v9.3h4.4c0.1,0.2,0.1,0.4,0,0.6H106.5z"/>
<path class="st0" d="M116.7,148.8c0-2.1,1.3-2.7,3.5-2.7c0.9,0,1.8,0.1,2.6,0.2c0.1,0.2,0.1,0.4,0,0.6c-0.8-0.1-1.7-0.2-2.6-0.2
	c-1.5,0-2.8,0.3-2.8,2.2v4.7c0,1.9,1.3,2.1,2.8,2.1c0.9,0,1.8-0.1,2.6-0.4c0.1,0.2,0.1,0.4,0.1,0.6c-0.9,0.4-1.8,0.5-2.8,0.5
	c-2.1,0-3.5-0.7-3.5-2.8L116.7,148.8z"/>
<path class="st0" d="M131.8,153.6c0,2.1-1.4,2.8-3.4,2.8s-3.4-0.7-3.4-2.8v-4.8c0-2.1,1.4-2.7,3.4-2.7c2.1,0,3.4,0.7,3.4,2.7V153.6z
	 M131.2,148.9c0-1.9-1.3-2.2-2.8-2.2s-2.7,0.2-2.7,2.2v4.7c0,1.9,1.3,2.1,2.7,2.1s2.8-0.3,2.8-2.1V148.9z"/>
<path class="st0" d="M134.6,156.2v-9.9c0.2-0.1,0.5-0.1,0.7,0v9.3h4.4c0.1,0.2,0.1,0.4,0,0.6H134.6z"/>
<path class="st0" d="M141.6,156.2v-9.9c0.2-0.1,0.4-0.1,0.7,0v9.3h4.4c0.1,0.2,0.1,0.4,0,0.6H141.6z"/>
<path class="st0" d="M148.6,156.2v-9.9h5.2c0.1,0.2,0.1,0.4,0,0.6h-4.5v3.9h4.3c0.1,0.2,0.1,0.4,0,0.6h-4.3v4.1h4.5
	c0.1,0.2,0.1,0.4,0,0.6H148.6z"/>
<path class="st0" d="M161.7,151.9h-2.5c-0.1-0.2-0.1-0.4,0-0.6h3.1v4.6c-0.9,0.4-1.9,0.5-2.9,0.5c-2.2,0-3.6-0.7-3.6-2.8v-4.8
	c0-2.1,1.4-2.7,3.6-2.7c0.9,0,1.8,0.1,2.7,0.2c0.1,0.2,0.1,0.4,0,0.6c-0.9-0.1-1.8-0.2-2.7-0.2c-1.6,0-2.9,0.3-2.9,2.2v4.7
	c0,1.9,1.3,2.1,2.9,2.1c0.8,0,1.5-0.1,2.2-0.3L161.7,151.9z"/>
<path class="st0" d="M165.1,156.2v-9.9h5.2c0.1,0.2,0.1,0.4,0,0.6h-4.5v3.9h4.3c0.1,0.2,0.1,0.4,0,0.6h-4.3v4.1h4.5
	c0.1,0.2,0.1,0.4,0,0.6H165.1z"/>
<path class="st1" d="M130.9,64.3c0,14.2-9.3,26.7-22.9,30.8c-1.4,0.4-2.9,0.6-4.4,0.8"/>
<path class="st2" d="M95.2,95.9c-1.6-0.1-3.2-0.3-4.8-0.7c-17.4-4.9-27.4-23-22.5-40.4c2.5-8.8,8.6-16.2,16.8-20.3"/>
<line class="st1" x1="106.5" y1="33" x2="93.9" y2="29.6"/>
<path class="st1" d="M106.2,33c14.5,3.5,24.7,16.4,24.7,31.3"/>
<path class="st1" d="M94.9,29.9c-6.6-1.3-11.3-7.1-11.3-13.8C83.6,8.3,90.8,2,98.6,2"/>
<line class="st2" x1="99.3" y1="13.8" x2="99.3" y2="45.5"/>
<path class="st0" d="M19,128.2c0,5.5-3.8,7.4-9.5,7.4S0,133.7,0,128.2v-12.9c0-5.5,3.8-7.3,9.5-7.3s9.5,1.8,9.5,7.3V128.2z
	 M16.3,115.5c0-4.6-3.1-5.2-6.8-5.2s-6.8,0.6-6.8,5.2v12.3c0,4.5,3.2,5.2,6.8,5.2s6.8-0.6,6.8-5.2V115.5z"/>
<path class="st0" d="M25.5,114.6c0.7-0.2,1.5-0.2,2.2,0l0.3,3h0.2c0.7-2.4,3.3-3.3,6.8-3.3c4,0,7,1.6,7,5.9v9.5c0,4.2-3,5.8-7,5.8
	c-3.5,0-6.1-0.9-6.8-3.3H28l0.2,3.2v8.2c-0.9,0.2-1.8,0.2-2.7,0C25.6,143.8,25.6,114.6,25.5,114.6z M39.3,121.1
	c0-3.9-2.3-4.4-5.1-4.4c-3.8,0-5,0.9-6,3.6v9.2c1,2.6,2.1,3.6,6,3.6c2.8,0,5.1-0.5,5.1-4.3C39.3,128.8,39.3,121.1,39.3,121.1z"/>
<path class="st0" d="M63.4,125.8c-3.2,0.2-9.2,0.2-13,0v3c0,3.7,2.5,4.2,5.7,4.2c2.2,0,4.3-0.2,6.4-0.6c0.2,0.8,0.2,1.6,0,2.4
	c-2.2,0.5-4.5,0.7-6.8,0.7c-5,0-8-1.6-8-6v-9.1c0-4.5,3.1-6.1,7.9-6.1s7.8,2,7.8,6.5L63.4,125.8z M60.8,120.8c0-3.7-2.4-4.2-5.2-4.2
	s-5.2,0.5-5.2,4.2v3.1l3.4-0.2h7L60.8,120.8z"/>
<path class="st0" d="M83.1,121.1c0-3.9-2.3-4.4-5.1-4.4c-3.8,0-5,0.9-6,3.6v14.7c-0.9,0.2-1.8,0.2-2.7,0v-20.3
	c0.7-0.2,1.4-0.2,2.2,0l0.3,2.9H72c0.7-2.4,3.3-3.3,6.8-3.3c4,0,7,1.6,7,5.8v14.9c-0.9,0.2-1.8,0.2-2.7,0V121.1z"/>
<path class="st3" d="M108.1,129.1c0,4.7-3.2,6.5-8.6,6.5c-2.4,0-4.8-0.2-7.1-0.6c-0.2-0.8-0.2-1.6,0-2.4c2.4,0.4,4.7,0.5,7.1,0.5
	c3.2,0,5.8-0.6,5.8-4.3V127c0-2.5-1.2-2.8-3.3-3.5l-4.9-1.6c-3.3-1.1-4.9-2.3-4.9-5.2v-2.3c0-4.8,3.6-6.4,9-6.4
	c2.2-0.1,4.5,0.2,6.6,0.7c0.2,0.8,0.2,1.5,0,2.3c-2.2-0.4-4.4-0.6-6.6-0.6c-3.5,0-6.3,0.6-6.3,4.2v1.5c0,2.2,1.1,2.7,3.3,3.5l5,1.7
	c3.3,1.1,4.8,2,4.8,5.4L108.1,129.1z"/>
<path class="st3" d="M129.1,129.5c0,4.4-3.2,6-8.2,6s-8.1-1.6-8.1-6v-9.1c0-4.5,3.2-6.1,8.1-6.1s8.2,1.6,8.2,6.1V129.5z
	 M126.4,120.9c0-3.7-2.5-4.2-5.5-4.2s-5.4,0.5-5.4,4.2v8.1c0,3.6,2.5,4.1,5.4,4.1s5.5-0.5,5.5-4.1V120.9z"/>
<path class="st3" d="M149.2,132.3H149c-0.7,2.4-3.3,3.3-6.8,3.3c-4,0-6.9-1.6-6.9-5.8v-14.9c0.9-0.2,1.8-0.2,2.7,0v14
	c0,3.8,2.3,4.3,5,4.3c3.8,0,4.9-1,5.9-3.6v-14.7c0.9-0.2,1.8-0.2,2.7,0v20.4c-0.7,0.2-1.4,0.2-2.2,0L149.2,132.3z"/>
<path class="st3" d="M156.8,114.7c0.7-0.1,1.4-0.1,2.2,0l0.3,3.1h0.2c0.7-2.4,3.2-3.5,6.7-3.5c0.2,0.8,0.2,1.7,0,2.5
	c-4.3,0-5.5,1-6.6,3.8v14.5c-0.9,0.2-1.8,0.2-2.7,0V114.7z"/>
<path class="st3" d="M168.9,120.3c0-4.5,2.9-6,7.6-6c2,0,4,0.2,6,0.6c0.2,0.8,0.2,1.6,0,2.4c-1.9-0.4-3.8-0.6-5.8-0.5
	c-2.7,0-5.2,0.5-5.2,4.2v8.1c0,3.6,2.5,4.1,5.2,4.1c1.9,0,3.9-0.2,5.8-0.6c0.1,0.8,0.1,1.6,0,2.4c-2,0.5-4,0.7-6,0.7
	c-4.7,0-7.6-1.6-7.6-6V120.3z"/>
<path class="st3" d="M201.3,125.8c-3.1,0.2-9.2,0.2-13,0v3c0,3.7,2.5,4.2,5.7,4.2c2.2,0,4.3-0.2,6.4-0.6c0.2,0.8,0.2,1.6,0,2.4
	c-2.2,0.5-4.5,0.7-6.8,0.7c-5,0-8-1.6-8-6v-9.1c0-4.5,3.1-6.1,7.9-6.1s7.8,2,7.8,6.5L201.3,125.8z M198.7,120.8
	c0-3.7-2.4-4.2-5.1-4.2s-5.2,0.5-5.2,4.2v3.1l3.4-0.2h7L198.7,120.8z"/>
</svg>
