<?xml version="1.0" encoding="utf-8"?>
<!-- Generator: Adobe Illustrator 23.0.1, SVG Export Plug-In . SVG Version: 6.00 Build 0)  -->
<svg version="1.1" id="Layer_1" xmlns="http://www.w3.org/2000/svg" xmlns:xlink="http://www.w3.org/1999/xlink" x="0px" y="0px"
	 viewBox="0 0 274.8 97.9" style="enable-background:new 0 0 274.8 97.9;" xml:space="preserve">
<style type="text/css">
	.st0{fill:none;stroke:#231F20;stroke-width:4;stroke-linecap:round;stroke-linejoin:round;}
	.st1{fill:none;stroke:#F15B2B;stroke-width:4;stroke-linecap:round;stroke-linejoin:round;}
	.st2{fill:#231F20;}
	.st3{fill:#F15B2B;}
</style>
<path class="st0" d="M30.6,95.9c-1.6-0.1-3.2-0.3-4.8-0.7C8.4,90.3-1.7,72.2,3.3,54.9c2.5-8.8,8.6-16.2,16.8-20.3"/>
<line class="st1" x1="41.9" y1="33" x2="29.3" y2="29.6"/>
<path class="st1" d="M41.6,33c17.3,4.2,27.9,21.6,23.8,38.8c-2.7,11.1-11,19.9-22,23.3c-1.4,0.4-2.9,0.7-4.4,0.8"/>
<path class="st1" d="M30.3,29.9C23.8,28.5,19,22.8,19,16.1C19,8.3,26.2,2,34,2"/>
<line class="st0" x1="34.7" y1="13.8" x2="34.7" y2="45.5"/>
<path class="st2" d="M114.4,84.3c0,2.1-1.4,2.8-3.4,2.8s-3.4-0.7-3.4-2.8v-4.8c0-2,1.4-2.7,3.4-2.7s3.4,0.7,3.4,2.7V84.3z
	 M113.8,79.6c0-1.9-1.3-2.2-2.8-2.2s-2.7,0.2-2.7,2.2v4.7c0,1.9,1.3,2.1,2.7,2.1s2.8-0.3,2.8-2.1V79.6z"/>
<path class="st2" d="M116.9,79.5c0-2.1,1.3-2.7,3.5-2.7c0.9,0,1.8,0.1,2.6,0.2c0.1,0.2,0.1,0.4,0,0.6c-0.8-0.1-1.7-0.2-2.6-0.2
	c-1.5,0-2.8,0.3-2.8,2.2v4.7c0,1.9,1.3,2.2,2.8,2.2c0.9,0,1.8-0.2,2.6-0.4c0.1,0.2,0.1,0.4,0.1,0.6c-0.9,0.3-1.8,0.5-2.8,0.5
	c-2.1,0-3.5-0.7-3.5-2.8L116.9,79.5z"/>
<path class="st2" d="M125.2,79.5c0-2.1,1.3-2.7,3.5-2.7c0.9,0,1.8,0.1,2.6,0.2c0.1,0.2,0.1,0.4,0,0.6c-0.9-0.1-1.7-0.2-2.6-0.2
	c-1.5,0-2.8,0.3-2.8,2.2v4.7c0,1.9,1.3,2.2,2.8,2.2c0.9,0,1.8-0.2,2.6-0.4c0.1,0.2,0.1,0.4,0.1,0.6c-0.9,0.3-1.8,0.5-2.8,0.5
	c-2.1,0-3.5-0.7-3.5-2.8L125.2,79.5z"/>
<path class="st2" d="M133.9,77c0.2-0.1,0.5-0.1,0.7,0v9.9c-0.2,0.1-0.5,0.1-0.7,0V77z"/>
<path class="st2" d="M137.7,86.9V77h3c2.2,0,3.6,0.7,3.6,2.7v4.4c0,2-1.4,2.8-3.6,2.8C140.7,86.9,137.7,86.9,137.7,86.9z
	 M143.7,79.8c0-1.9-1.3-2.2-2.9-2.2h-2.4v8.6h2.4c1.6,0,2.9-0.3,2.9-2.2V79.8z"/>
<path class="st2" d="M147.1,86.9V77h5.2c0.1,0.2,0.1,0.4,0,0.6h-4.5v3.9h4.3c0.1,0.2,0.1,0.4,0,0.6h-4.3v4.1h4.5
	c0.1,0.2,0.1,0.4,0,0.6H147.1z"/>
<path class="st2" d="M155.4,78v8.9c-0.2,0.1-0.4,0.1-0.7,0V77c0.3-0.1,0.5-0.1,0.8,0l5.4,9.1V77c0.2-0.1,0.5-0.1,0.7,0v9.9
	c-0.3,0.1-0.6,0.1-0.9,0L155.4,78z"/>
<path class="st2" d="M166.5,77.6h-3.1c-0.1-0.2-0.1-0.4,0-0.6h6.8c0.1,0.2,0.1,0.4,0,0.6h-3v9.3c-0.2,0.1-0.5,0.1-0.7,0L166.5,77.6z
	"/>
<path class="st2" d="M175.9,83.6h-4.1l-1.2,3.3c-0.2,0.1-0.4,0.1-0.7,0l3.5-9.9c0.2-0.1,0.5-0.1,0.7,0l3.5,9.9
	c-0.2,0.1-0.5,0.1-0.7,0L175.9,83.6z M173.9,77.8l-1.8,5.2h3.7L173.9,77.8z"/>
<path class="st2" d="M180,86.9V77c0.2-0.1,0.5-0.1,0.7,0v9.3h4.4c0.1,0.2,0.1,0.4,0,0.6H180z"/>
<path class="st2" d="M190.1,79.5c0-2.1,1.3-2.7,3.5-2.7c0.9,0,1.8,0.1,2.6,0.2c0.1,0.2,0.1,0.4,0,0.6c-0.9-0.1-1.7-0.2-2.6-0.2
	c-1.6,0-2.8,0.3-2.8,2.2v4.7c0,1.9,1.3,2.2,2.8,2.2c0.9,0,1.8-0.2,2.6-0.4c0.1,0.2,0.1,0.4,0.1,0.6c-0.9,0.3-1.8,0.5-2.8,0.5
	c-2.1,0-3.5-0.7-3.5-2.8V79.5z"/>
<path class="st2" d="M205.3,84.3c0,2.1-1.4,2.8-3.4,2.8s-3.4-0.7-3.4-2.8v-4.8c0-2,1.4-2.7,3.4-2.7s3.4,0.7,3.4,2.7V84.3z
	 M204.6,79.6c0-1.9-1.3-2.2-2.7-2.2s-2.8,0.2-2.8,2.2v4.7c0,1.9,1.3,2.1,2.8,2.1s2.7-0.3,2.7-2.1V79.6z"/>
<path class="st2" d="M208.1,86.9V77c0.2-0.1,0.4-0.1,0.7,0v9.3h4.4c0.1,0.2,0.1,0.4,0,0.6H208.1z"/>
<path class="st2" d="M215.1,86.9V77c0.2-0.1,0.5-0.1,0.7,0v9.3h4.4c0.1,0.2,0.1,0.4,0,0.6H215.1z"/>
<path class="st2" d="M222.1,86.9V77h5.2c0.1,0.2,0.1,0.4,0,0.6h-4.5v3.9h4.3c0.1,0.2,0.1,0.4,0,0.6h-4.3v4.1h4.5
	c0.1,0.2,0.1,0.4,0,0.6H222.1z"/>
<path class="st2" d="M235.1,82.6h-2.5c-0.1-0.2-0.1-0.4,0-0.6h3.1v4.6c-0.9,0.3-1.9,0.5-2.9,0.5c-2.2,0-3.6-0.7-3.6-2.8v-4.8
	c0-2.1,1.4-2.7,3.6-2.7c0.9,0,1.8,0.1,2.7,0.2c0.1,0.2,0.1,0.4,0,0.6c-0.9-0.1-1.8-0.2-2.6-0.2c-1.6,0-2.9,0.3-2.9,2.2v4.7
	c0,1.9,1.3,2.2,2.9,2.2c0.7,0,1.5-0.1,2.2-0.3L235.1,82.6L235.1,82.6z"/>
<path class="st2" d="M238.6,86.9V77h5.2c0.1,0.2,0.1,0.4,0,0.6h-4.5v3.9h4.3c0.1,0.2,0.1,0.4,0,0.6h-4.3v4.1h4.5
	c0.1,0.2,0.1,0.4,0,0.6H238.6z"/>
<path class="st2" d="M92.5,58.9c0,5.5-3.8,7.4-9.5,7.4s-9.5-1.8-9.5-7.4v-13c0-5.5,3.8-7.3,9.5-7.3s9.5,1.8,9.5,7.3V58.9z
	 M89.7,46.2c0-4.6-3.1-5.2-6.8-5.2s-6.8,0.6-6.8,5.2v12.3c0,4.5,3.2,5.2,6.8,5.2s6.8-0.6,6.8-5.2V46.2z"/>
<path class="st2" d="M99,45.3c0.7-0.2,1.4-0.2,2.2,0l0.3,3h0.2c0.7-2.4,3.3-3.3,6.8-3.3c4,0,7,1.6,7,5.9v9.5c0,4.2-3,5.8-7,5.8
	c-3.5,0-6.1-0.9-6.8-3.3h-0.2l0.2,3.3v8.2c-0.9,0.2-1.8,0.2-2.7,0V45.3z M112.7,51.8c0-3.9-2.3-4.4-5.1-4.4c-3.8,0-5,0.9-6,3.6v9.2
	c1,2.6,2.1,3.6,6,3.6c2.8,0,5.1-0.5,5.1-4.3V51.8z"/>
<path class="st2" d="M136.8,56.5c-3.2,0.2-9.2,0.2-13,0v3c0,3.7,2.5,4.2,5.7,4.2c2.2,0,4.3-0.2,6.4-0.6c0.2,0.8,0.2,1.6,0,2.4
	c-2.2,0.5-4.5,0.7-6.8,0.7c-5,0-8-1.6-8-6V51c0-4.5,3.1-6.1,7.9-6.1c4.8,0,7.8,2,7.8,6.5L136.8,56.5z M134.2,51.5
	c0-3.7-2.4-4.2-5.2-4.2c-2.7,0-5.2,0.5-5.2,4.2v3.1l3.4-0.2h7L134.2,51.5z"/>
<path class="st2" d="M156.6,51.8c0-3.9-2.3-4.4-5.1-4.4c-3.8,0-5,0.9-6,3.6v14.7c-0.9,0.2-1.8,0.2-2.7,0V45.5c0.7-0.2,1.4-0.2,2.2,0
	l0.3,2.9h0.2c0.7-2.4,3.3-3.3,6.8-3.3c4,0,7,1.6,7,5.8v14.9c-0.9,0.2-1.8,0.2-2.7,0L156.6,51.8z"/>
<path class="st3" d="M181.5,59.8c0,4.7-3.2,6.5-8.6,6.5c-2.4,0-4.8-0.2-7.1-0.6c-0.2-0.8-0.2-1.6,0-2.4c2.4,0.3,4.7,0.5,7.1,0.5
	c3.2,0,5.8-0.6,5.8-4.3v-1.7c0-2.5-1.2-2.8-3.3-3.5l-4.9-1.6c-3.3-1.1-4.9-2.3-4.9-5.2V45c0-4.8,3.6-6.4,9-6.4
	c2.2,0,4.5,0.2,6.6,0.7c0.2,0.8,0.2,1.5,0,2.3c-2.2-0.4-4.4-0.6-6.6-0.6c-3.5,0-6.3,0.6-6.3,4.2v1.5c0,2.2,1.1,2.7,3.3,3.5l5,1.7
	c3.3,1.1,4.8,2,4.8,5.4L181.5,59.8z"/>
<path class="st3" d="M202.6,60.2c0,4.4-3.2,6-8.2,6s-8.1-1.6-8.1-6v-9.1c0-4.5,3.2-6.1,8.1-6.1s8.2,1.6,8.2,6.1V60.2z M199.9,51.6
	c0-3.7-2.5-4.2-5.5-4.2s-5.4,0.5-5.4,4.2v8.1c0,3.6,2.5,4.1,5.4,4.1s5.5-0.5,5.5-4.1V51.6z"/>
<path class="st3" d="M222.6,63h-0.2c-0.7,2.4-3.3,3.3-6.8,3.3c-4,0-6.9-1.6-6.9-5.8V45.5c0.9-0.2,1.8-0.2,2.7,0v14
	c0,3.8,2.3,4.3,5,4.3c3.8,0,4.9-1,5.9-3.6V45.5c0.9-0.2,1.8-0.2,2.7,0V66c-0.7,0.2-1.4,0.2-2.2,0L222.6,63z"/>
<path class="st3" d="M230.2,45.5c0.7-0.1,1.4-0.1,2.2,0l0.3,3.1h0.2c0.7-2.4,3.2-3.5,6.7-3.5c0.2,0.8,0.2,1.7,0,2.5
	c-4.3,0-5.5,1-6.6,3.8v14.5c-0.9,0.2-1.8,0.2-2.7,0V45.5z"/>
<path class="st3" d="M242.3,51c0-4.5,2.9-6,7.6-6c2,0,4,0.2,6,0.6c0.2,0.8,0.2,1.6,0,2.4c-1.9-0.4-3.8-0.6-5.8-0.5
	c-2.7,0-5.2,0.5-5.2,4.2v8.1c0,3.6,2.5,4.1,5.2,4.1c1.9,0,3.9-0.2,5.8-0.6c0.2,0.8,0.2,1.6,0,2.4c-2,0.5-4,0.7-6,0.7
	c-4.7,0-7.6-1.6-7.6-6V51z"/>
<path class="st3" d="M274.7,56.5c-3.2,0.2-9.2,0.2-13,0v3c0,3.7,2.5,4.2,5.7,4.2c2.2,0,4.3-0.2,6.4-0.6c0.2,0.8,0.2,1.6,0,2.4
	c-2.2,0.5-4.5,0.7-6.8,0.7c-5,0-8-1.6-8-6V51c0-4.5,3.1-6.1,7.9-6.1s7.8,2,7.8,6.5L274.7,56.5z M272.1,51.5c0-3.7-2.4-4.2-5.2-4.2
	s-5.2,0.5-5.2,4.2v3.1l3.4-0.2h7L272.1,51.5z"/>
</svg>
