<?xml version="1.0" encoding="utf-8"?>
<!-- Generator: Adobe Illustrator 23.0.2, SVG Export Plug-In . SVG Version: 6.00 Build 0)  -->
<svg version="1.1" id="Layer_1" xmlns="http://www.w3.org/2000/svg" xmlns:xlink="http://www.w3.org/1999/xlink" x="0px" y="0px"
	 viewBox="0 0 111.3 134.5" style="enable-background:new 0 0 111.3 134.5;" xml:space="preserve">
<style type="text/css">
	.st0{fill:none;stroke:#231F20;stroke-width:4;stroke-linecap:round;stroke-linejoin:round;}
	.st1{fill:#231F20;}
</style>
<path class="st0" d="M87.7,64.3c0,14.2-9.3,26.7-22.9,30.8c-1.4,0.4-2.9,0.6-4.4,0.8"/>
<path class="st0" d="M52,95.9c-1.6-0.1-3.2-0.3-4.8-0.7c-17.4-4.9-27.4-23-22.5-40.4c2.5-8.8,8.6-16.2,16.8-20.3"/>
<line class="st0" x1="63.4" y1="33" x2="50.8" y2="29.6"/>
<path class="st0" d="M63,33c14.5,3.5,24.7,16.4,24.7,31.3"/>
<path class="st0" d="M51.8,29.8c-6.6-1.3-11.3-7.1-11.3-13.8c0-7.7,7.1-14,14.9-14"/>
<line class="st0" x1="56.2" y1="13.8" x2="56.2" y2="45.4"/>
<path class="st1" d="M19,127.2c0,5.5-3.8,7.4-9.5,7.4S0,132.7,0,127.2v-13c0-5.5,3.8-7.3,9.5-7.3s9.5,1.8,9.5,7.3V127.2z
	 M16.3,114.5c0-4.6-3.1-5.2-6.8-5.2s-6.8,0.6-6.8,5.2v12.3c0,4.5,3.2,5.2,6.8,5.2s6.8-0.6,6.8-5.2V114.5z"/>
<path class="st1" d="M33.9,122.2l-7.6,11.9c-0.9,0.2-1.9,0.2-2.8,0l8.8-13.8l-8.2-12.8c1-0.2,1.9-0.2,2.9,0l6.9,11l7-11
	c0.9-0.2,1.9-0.2,2.8,0l-8.2,12.8l8.8,13.8c-1,0.2-1.9,0.2-2.9,0L33.9,122.2z"/>
<path class="st1" d="M54.8,122.9L46,107.5c0.9-0.2,1.9-0.2,2.8,0l7.4,13.2l7.4-13.2c0.9-0.2,1.8-0.2,2.8,0l-8.9,15.4V134
	c-0.9,0.2-1.8,0.2-2.7,0V122.9z"/>
<path class="st1" d="M89.5,127.2c0,5.5-3.8,7.4-9.5,7.4s-9.5-1.8-9.5-7.3v-13c0-5.5,3.8-7.3,9.5-7.3s9.5,1.8,9.5,7.3
	C89.5,114.2,89.5,127.2,89.5,127.2z M86.8,114.5c0-4.6-3.1-5.2-6.8-5.2s-6.8,0.6-6.8,5.2v12.3c0,4.5,3.2,5.2,6.8,5.2
	s6.8-0.6,6.8-5.2V114.5z"/>
<path class="st1" d="M111.2,128.1c0,4.7-3.2,6.5-8.6,6.5c-2.4,0-4.8-0.2-7.1-0.6c-0.2-0.8-0.2-1.6,0-2.4c2.4,0.4,4.7,0.5,7.1,0.5
	c3.2,0,5.8-0.6,5.8-4.3V126c0-2.5-1.2-2.8-3.3-3.5l-4.9-1.6c-3.3-1.1-4.9-2.3-4.9-5.2v-2.3c0-4.8,3.6-6.4,9-6.4
	c2.2-0.1,4.5,0.2,6.6,0.7c0.2,0.8,0.2,1.5,0,2.3c-2.2-0.4-4.4-0.6-6.6-0.6c-3.5,0-6.3,0.6-6.3,4.2v1.5c0,2.2,1.1,2.7,3.3,3.5l5,1.7
	c3.3,1.1,4.8,2,4.8,5.4L111.2,128.1z"/>
</svg>
