<?xml version="1.0" encoding="utf-8"?>
<!-- Generator: Adobe Illustrator 23.0.1, SVG Export Plug-In . SVG Version: 6.00 Build 0)  -->
<svg version="1.1" id="Layer_1" xmlns="http://www.w3.org/2000/svg" xmlns:xlink="http://www.w3.org/1999/xlink" x="0px" y="0px"
	 viewBox="0 0 111.28 134.54" style="enable-background:new 0 0 111.28 134.54;" xml:space="preserve">
<style type="text/css">
	.st0{fill:none;stroke:#F15B2B;stroke-width:4;stroke-linecap:round;stroke-linejoin:round;}
	.st1{fill:none;stroke:#231F20;stroke-width:4;stroke-linecap:round;stroke-linejoin:round;}
	.st2{fill:#231F20;}
	.st3{fill:#F15B2B;}
</style>
<path class="st0" d="M87.7,64.29c0,14.19-9.29,26.71-22.87,30.81c-1.43,0.37-2.89,0.64-4.36,0.81"/>
<path class="st1" d="M52.03,95.91c-1.62-0.05-3.24-0.28-4.81-0.68c-17.37-4.94-27.44-23.03-22.5-40.4
	c2.51-8.83,8.62-16.19,16.83-20.3"/>
<line class="st0" x1="63.37" y1="32.99" x2="50.76" y2="29.6"/>
<path class="st0" d="M63.04,32.99C77.5,36.47,87.7,49.41,87.7,64.29"/>
<path class="st0" d="M51.76,29.85c-6.58-1.3-11.32-7.08-11.29-13.79C40.47,8.3,47.63,2,55.4,2"/>
<line class="st1" x1="56.17" y1="13.82" x2="56.17" y2="45.45"/>
<path class="st2" d="M19.04,127.19c0,5.52-3.8,7.35-9.52,7.35S0,132.71,0,127.19v-13c0-5.48,3.8-7.32,9.52-7.32s9.52,1.84,9.52,7.32
	V127.19z M16.28,114.55c0-4.6-3.12-5.2-6.76-5.2s-6.76,0.6-6.76,5.2v12.32c0,4.52,3.16,5.15,6.76,5.15s6.76-0.63,6.76-5.15V114.55z"
	/>
<path class="st2" d="M33.92,122.19l-7.6,11.87c-0.94,0.16-1.9,0.16-2.84,0l8.84-13.75l-8.17-12.84c0.95-0.16,1.93-0.16,2.88,0
	l6.92,11l7-11c0.93-0.16,1.87-0.16,2.8,0l-8.2,12.8l8.84,13.79c-0.95,0.16-1.93,0.16-2.88,0L33.92,122.19z"/>
<path class="st2" d="M54.84,122.91l-8.76-15.44c0.94-0.16,1.9-0.16,2.84,0l7.36,13.2l7.44-13.2c0.91-0.16,1.85-0.16,2.76,0
	l-8.92,15.44v11.15c-0.9,0.16-1.82,0.16-2.72,0L54.84,122.91z"/>
<path class="st3" d="M89.52,127.19c0,5.52-3.8,7.35-9.52,7.35s-9.52-1.83-9.52-7.35v-13c0-5.48,3.8-7.32,9.52-7.32
	s9.52,1.84,9.52,7.32V127.19z M86.76,114.55c0-4.6-3.12-5.2-6.76-5.2s-6.76,0.6-6.76,5.2v12.32c0,4.52,3.16,5.15,6.76,5.15
	s6.76-0.63,6.76-5.15V114.55z"/>
<path class="st3" d="M111.2,128.07c0,4.72-3.16,6.47-8.56,6.47c-2.39,0.03-4.77-0.18-7.12-0.64c-0.16-0.79-0.16-1.6,0-2.39
	c2.36,0.35,4.74,0.52,7.12,0.51c3.2,0,5.84-0.55,5.84-4.27v-1.72c0-2.52-1.16-2.84-3.28-3.52l-4.88-1.64
	c-3.32-1.08-4.88-2.32-4.88-5.2v-2.28c0-4.76,3.64-6.44,9-6.44c2.23-0.05,4.46,0.18,6.64,0.68c0.16,0.75,0.16,1.53,0,2.28
	c-2.18-0.38-4.39-0.57-6.6-0.56c-3.52,0-6.28,0.64-6.28,4.24v1.52c0,2.24,1.12,2.72,3.28,3.48l5,1.68c3.28,1.12,4.8,2,4.8,5.36
	L111.2,128.07z"/>
</svg>
