<?xml version="1.0" encoding="utf-8"?>
<!-- Generator: Adobe Illustrator 23.0.1, SVG Export Plug-In . SVG Version: 6.00 Build 0)  -->
<svg version="1.1" id="Layer_1" xmlns="http://www.w3.org/2000/svg" xmlns:xlink="http://www.w3.org/1999/xlink" x="0px" y="0px"
	 viewBox="0 0 24 24" style="enable-background:new 0 0 24 24;" xml:space="preserve">
<style type="text/css">
	.st0{fill:#FFFFFF;}
</style>
<g>
	<path class="st0" d="M23,8.7c-1.3-4.2-2.8-6.6-5.1-7.8C15.7-0.3,12.9-0.3,8.7,1C0.6,3.4-1.5,7.3,1,15.3c1.8,6,4.4,8.7,8.9,8.7
		c1.6,0,3.3-0.3,5.4-0.9C23.3,20.6,25.4,16.7,23,8.7z M14.7,21.1c-7,2.1-9.7,0.6-11.8-6.4C0.8,7.8,2.3,5,9.3,2.9
		c2-0.6,3.6-0.9,4.9-0.9c1.1,0,2.1,0.2,2.9,0.6c1.7,0.9,3,3,4.1,6.6c0,0,0,0,0,0C23.2,16.2,21.7,19,14.7,21.1z"/>
	<path class="st0" d="M17.7,11.6l-1.9,0.7l-1-2.8l1.9-0.7c0.5-0.2,0.8-0.7,0.6-1.3c-0.2-0.5-0.7-0.8-1.3-0.6l-1.9,0.7l-0.7-1.9
		c-0.2-0.5-0.7-0.8-1.3-0.6c-0.5,0.2-0.8,0.7-0.6,1.3l0.7,1.9l-2.8,1L8.8,7.3C8.6,6.8,8,6.5,7.5,6.7C7,6.8,6.7,7.4,6.9,7.9l0.7,1.9
		l-1.9,0.7c-0.5,0.2-0.8,0.7-0.6,1.3c0.1,0.4,0.5,0.7,0.9,0.7c0.1,0,0.2,0,0.3-0.1l1.9-0.7l1,2.8l-1.9,0.7c-0.5,0.2-0.8,0.7-0.6,1.3
		c0.1,0.4,0.5,0.7,0.9,0.7c0.1,0,0.2,0,0.3-0.1l1.9-0.7l0.7,1.9c0.1,0.4,0.5,0.7,0.9,0.7c0.1,0,0.2,0,0.3-0.1
		c0.5-0.2,0.8-0.7,0.6-1.3l-0.7-1.9l2.8-1l0.7,1.9c0.1,0.4,0.5,0.7,0.9,0.7c0.1,0,0.2,0,0.3-0.1c0.5-0.2,0.8-0.7,0.6-1.3l-0.7-1.9
		l1.9-0.7c0.5-0.2,0.8-0.7,0.6-1.3C18.8,11.7,18.2,11.4,17.7,11.6z M11.1,13.9l-1-2.8l2.8-1l1,2.8L11.1,13.9z"/>
</g>
</svg>
